  0
SECTION
  2
HEADER
  9
$ACADVER
  1
AC1032
  9
$ACADMAINTVER
 90
       55
  9
$DWGCODEPAGE
  3
ANSI_1252
  9
$LASTSAVEDBY
  1
cipulot
  9
$REQUIREDVERSIONS
160
                 0
  9
$INSBASE
 10
0.0
 20
0.0
 30
0.0
  9
$EXTMIN
 10
1.000000000000000E+20
 20
1.000000000000000E+20
 30
1.000000000000000E+20
  9
$EXTMAX
 10
-1.000000000000000E+20
 20
-1.000000000000000E+20
 30
-1.000000000000000E+20
  9
$LIMMIN
 10
0.0
 20
0.0
  9
$LIMMAX
 10
12.0
 20
9.0
  9
$ORTHOMODE
 70
     0
  9
$REGENMODE
 70
     1
  9
$FILLMODE
 70
     1
  9
$QTEXTMODE
 70
     0
  9
$MIRRTEXT
 70
     1
  9
$LTSCALE
 40
1.0
  9
$ATTMODE
 70
     1
  9
$TEXTSIZE
 40
0.2
  9
$TRACEWID
 40
0.05
  9
$TEXTSTYLE
  7
STANDARD
  9
$CLAYER
  8
0
  9
$CELTYPE
  6
BYBLOCK
  9
$CECOLOR
 62
   256
  9
$CELTSCALE
 40
1.0
  9
$DISPSILH
 70
     0
  9
$DIMSCALE
 40
1.0
  9
$DIMASZ
 40
0.18
  9
$DIMEXO
 40
0.0625
  9
$DIMDLI
 40
0.38
  9
$DIMRND
 40
0.0
  9
$DIMDLE
 40
0.0
  9
$DIMEXE
 40
0.18
  9
$DIMTP
 40
0.0
  9
$DIMTM
 40
0.0
  9
$DIMTXT
 40
0.18
  9
$DIMCEN
 40
0.09
  9
$DIMTSZ
 40
0.0
  9
$DIMTOL
 70
     0
  9
$DIMLIM
 70
     0
  9
$DIMTIH
 70
     1
  9
$DIMTOH
 70
     1
  9
$DIMSE1
 70
     0
  9
$DIMSE2
 70
     0
  9
$DIMTAD
 70
     0
  9
$DIMZIN
 70
     0
  9
$DIMBLK
  1

  9
$DIMASO
 70
     1
  9
$DIMSHO
 70
     1
  9
$DIMPOST
  1

  9
$DIMAPOST
  1

  9
$DIMALT
 70
     0
  9
$DIMALTD
 70
     2
  9
$DIMALTF
 40
25.4
  9
$DIMLFAC
 40
1.0
  9
$DIMTOFL
 70
     0
  9
$DIMTVP
 40
0.0
  9
$DIMTIX
 70
     0
  9
$DIMSOXD
 70
     0
  9
$DIMSAH
 70
     0
  9
$DIMBLK1
  1

  9
$DIMBLK2
  1

  9
$DIMSTYLE
  2
Standard
  9
$DIMCLRD
 70
     0
  9
$DIMCLRE
 70
     0
  9
$DIMCLRT
 70
     0
  9
$DIMTFAC
 40
1.0
  9
$DIMGAP
 40
0.09
  9
$DIMJUST
 70
     0
  9
$DIMSD1
 70
     0
  9
$DIMSD2
 70
     0
  9
$DIMTOLJ
 70
     1
  9
$DIMTZIN
 70
     0
  9
$DIMALTZ
 70
     0
  9
$DIMALTTZ
 70
     0
  9
$DIMUPT
 70
     0
  9
$DIMDEC
 70
     4
  9
$DIMTDEC
 70
     4
  9
$DIMALTU
 70
     2
  9
$DIMALTTD
 70
     2
  9
$DIMTXSTY
  7
STANDARD
  9
$DIMAUNIT
 70
     0
  9
$DIMADEC
 70
     0
  9
$DIMALTRND
 40
0.0
  9
$DIMAZIN
 70
     0
  9
$DIMDSEP
 70
    46
  9
$DIMATFIT
 70
     3
  9
$DIMFRAC
 70
     0
  9
$DIMLDRBLK
  1

  9
$DIMLUNIT
 70
     2
  9
$DIMLWD
 70
    -2
  9
$DIMLWE
 70
    -2
  9
$DIMTMOVE
 70
     2
  9
$DIMFXL
 40
1.0
  9
$DIMFXLON
 70
     0
  9
$DIMJOGANG
 40
0.7853981633974483
  9
$DIMTFILL
 70
     0
  9
$DIMTFILLCLR
 70
     0
  9
$DIMARCSYM
 70
     0
  9
$DIMLTYPE
  6

  9
$DIMLTEX1
  6

  9
$DIMLTEX2
  6

  9
$DIMTXTDIRECTION
 70
     0
  9
$LUNITS
 70
     2
  9
$LUPREC
 70
     4
  9
$SKETCHINC
 40
0.1
  9
$FILLETRAD
 40
0.0
  9
$AUNITS
 70
     0
  9
$AUPREC
 70
     0
  9
$MENU
  1
.
  9
$ELEVATION
 40
0.0
  9
$PELEVATION
 40
0.0
  9
$THICKNESS
 40
0.0
  9
$LIMCHECK
 70
     0
  9
$CHAMFERA
 40
0.0
  9
$CHAMFERB
 40
0.0
  9
$CHAMFERC
 40
0.0
  9
$CHAMFERD
 40
0.0
  9
$SKPOLY
 70
     0
  9
$TDCREATE
 40
0.0
  9
$TDUCREATE
 40
0.0
  9
$TDUPDATE
 40
2460602.755738044
  9
$TDUUPDATE
 40
2460602.714071377
  9
$TDINDWG
 40
0.0
  9
$TDUSRTIMER
 40
0.0
  9
$USRTIMER
 70
     1
  9
$ANGBASE
 50
0.0
  9
$ANGDIR
 70
     0
  9
$PDMODE
 70
     0
  9
$PDSIZE
 40
0.0
  9
$PLINEWID
 40
0.0
  9
$SPLFRAME
 70
     0
  9
$SPLINETYPE
 70
     6
  9
$SPLINESEGS
 70
     8
  9
$HANDSEED
  5
100B9
  9
$SURFTAB1
 70
     6
  9
$SURFTAB2
 70
     6
  9
$SURFTYPE
 70
     6
  9
$SURFU
 70
     6
  9
$SURFV
 70
     6
  9
$UCSBASE
  2

  9
$UCSNAME
  2

  9
$UCSORG
 10
0.0
 20
0.0
 30
0.0
  9
$UCSXDIR
 10
1.0
 20
0.0
 30
0.0
  9
$UCSYDIR
 10
0.0
 20
1.0
 30
0.0
  9
$UCSORTHOREF
  2

  9
$UCSORTHOVIEW
 70
     0
  9
$UCSORGTOP
 10
0.0
 20
0.0
 30
0.0
  9
$UCSORGBOTTOM
 10
0.0
 20
0.0
 30
0.0
  9
$UCSORGLEFT
 10
0.0
 20
0.0
 30
0.0
  9
$UCSORGRIGHT
 10
0.0
 20
0.0
 30
0.0
  9
$UCSORGFRONT
 10
0.0
 20
0.0
 30
0.0
  9
$UCSORGBACK
 10
0.0
 20
0.0
 30
0.0
  9
$PUCSBASE
  2

  9
$PUCSNAME
  2

  9
$PUCSORG
 10
0.0
 20
0.0
 30
0.0
  9
$PUCSXDIR
 10
1.0
 20
0.0
 30
0.0
  9
$PUCSYDIR
 10
0.0
 20
1.0
 30
0.0
  9
$PUCSORTHOREF
  2

  9
$PUCSORTHOVIEW
 70
     0
  9
$PUCSORGTOP
 10
0.0
 20
0.0
 30
0.0
  9
$PUCSORGBOTTOM
 10
0.0
 20
0.0
 30
0.0
  9
$PUCSORGLEFT
 10
0.0
 20
0.0
 30
0.0
  9
$PUCSORGRIGHT
 10
0.0
 20
0.0
 30
0.0
  9
$PUCSORGFRONT
 10
0.0
 20
0.0
 30
0.0
  9
$PUCSORGBACK
 10
0.0
 20
0.0
 30
0.0
  9
$USERI1
 70
     0
  9
$USERI2
 70
     0
  9
$USERI3
 70
     0
  9
$USERI4
 70
     0
  9
$USERI5
 70
     0
  9
$USERR1
 40
0.0
  9
$USERR2
 40
0.0
  9
$USERR3
 40
0.0
  9
$USERR4
 40
0.0
  9
$USERR5
 40
0.0
  9
$WORLDVIEW
 70
     1
  9
$SHADEDGE
 70
     3
  9
$SHADEDIF
 70
    70
  9
$TILEMODE
 70
     1
  9
$MAXACTVP
 70
    64
  9
$PINSBASE
 10
0.0
 20
0.0
 30
0.0
  9
$PLIMCHECK
 70
     0
  9
$PEXTMIN
 10
1.000000000000000E+20
 20
1.000000000000000E+20
 30
1.000000000000000E+20
  9
$PEXTMAX
 10
-1.000000000000000E+20
 20
-1.000000000000000E+20
 30
-1.000000000000000E+20
  9
$PLIMMIN
 10
0.0
 20
0.0
  9
$PLIMMAX
 10
12.0
 20
9.0
  9
$UNITMODE
 70
     0
  9
$VISRETAIN
 70
     1
  9
$PLINEGEN
 70
     0
  9
$PSLTSCALE
 70
     1
  9
$TREEDEPTH
 70
  3020
  9
$CMLSTYLE
  2
Standard
  9
$CMLJUST
 70
     0
  9
$CMLSCALE
 40
1.0
  9
$PROXYGRAPHICS
 70
     1
  9
$MEASUREMENT
 70
     0
  9
$CELWEIGHT
370
    -1
  9
$ENDCAPS
280
     0
  9
$JOINSTYLE
280
     0
  9
$LWDISPLAY
290
     0
  9
$INSUNITS
 70
     4
  9
$HYPERLINKBASE
  1

  9
$STYLESHEET
  1

  9
$XEDIT
290
     1
  9
$CEPSNTYPE
380
     0
  9
$PSTYLEMODE
290
     1
  9
$FINGERPRINTGUID
  2
{c16db2d3-f2e3-9d47-91c3-64ebf8f8963a}
  9
$VERSIONGUID
  2
{C0A4A7C5-44D1-4BA9-BCC7-E4F18F62DCDB}
  9
$EXTNAMES
290
     1
  9
$PSVPSCALE
 40
0.0
  9
$OLESTARTUP
290
     0
  9
$SORTENTS
280
   127
  9
$INDEXCTL
280
     0
  9
$HIDETEXT
280
     1
  9
$XCLIPFRAME
280
     2
  9
$HALOGAP
280
     0
  9
$OBSCOLOR
 70
   257
  9
$OBSLTYPE
280
     0
  9
$INTERSECTIONDISPLAY
280
     0
  9
$INTERSECTIONCOLOR
 70
   257
  9
$DIMASSOC
280
     2
  9
$PROJECTNAME
  1

  9
$CAMERADISPLAY
290
     0
  9
$LENSLENGTH
 40
50.0
  9
$CAMERAHEIGHT
 40
0.0
  9
$STEPSPERSEC
 40
2.0
  9
$STEPSIZE
 40
6.0
  9
$3DDWFPREC
 40
2.0
  9
$PSOLWIDTH
 40
0.25
  9
$PSOLHEIGHT
 40
4.0
  9
$LOFTANG1
 40
1.570796326794897
  9
$LOFTANG2
 40
1.570796326794897
  9
$LOFTMAG1
 40
0.0
  9
$LOFTMAG2
 40
0.0
  9
$LOFTPARAM
 70
     7
  9
$LOFTNORMALS
280
     1
  9
$LATITUDE
 40
37.795
  9
$LONGITUDE
 40
-122.394
  9
$NORTHDIRECTION
 40
0.0
  9
$TIMEZONE
 70
 -8000
  9
$LIGHTGLYPHDISPLAY
280
     1
  9
$TILEMODELIGHTSYNCH
280
     1
  9
$CMATERIAL
347
1001C
  9
$SOLIDHIST
280
     0
  9
$SHOWHIST
280
     1
  9
$DWFFRAME
280
     2
  9
$DGNFRAME
280
     2
  9
$REALWORLDSCALE
290
     1
  9
$INTERFERECOLOR
 62
   256
  9
$CSHADOW
280
     0
  9
$SHADOWPLANELOCATION
 40
0.0
  0
ENDSEC
  0
SECTION
  2
CLASSES
  0
CLASS
  1
ACDBDICTIONARYWDFLT
  2
AcDbDictionaryWithDefault
  3
ObjectDBX Classes
 90
        0
 91
        3
280
     0
281
     0
  0
CLASS
  1
SCALE
  2
AcDbScale
  3
ObjectDBX Classes
 90
     1153
 91
        3
280
     0
281
     0
  0
CLASS
  1
MATERIAL
  2
AcDbMaterial
  3
ObjectDBX Classes
 90
     1153
 91
        3
280
     0
281
     0
  0
CLASS
  1
VISUALSTYLE
  2
AcDbVisualStyle
  3
ObjectDBX Classes
 90
     4095
 91
        3
280
     0
281
     0
  0
CLASS
  1
TABLESTYLE
  2
AcDbTableStyle
  3
ObjectDBX Classes
 90
     4095
 91
        3
280
     0
281
     0
  0
CLASS
  1
MLEADERSTYLE
  2
AcDbMLeaderStyle
  3
ACDB_MLEADERSTYLE_CLASS
 90
     4095
 91
        3
280
     0
281
     0
  0
CLASS
  1
DICTIONARYVAR
  2
AcDbDictionaryVar
  3
ObjectDBX Classes
 90
        0
 91
        3
280
     0
281
     0
  0
CLASS
  1
CELLSTYLEMAP
  2
AcDbCellStyleMap
  3
ObjectDBX Classes
 90
     1152
 91
        3
280
     0
281
     0
  0
CLASS
  1
SUN
  2
AcDbSun
  3
SCENEOE
 90
     1153
 91
        3
280
     0
281
     0
  0
CLASS
  1
MENTALRAYRENDERSETTINGS
  2
AcDbMentalRayRenderSettings
  3
SCENEOE
 90
     1024
 91
        3
280
     0
281
     0
  0
CLASS
  1
ACDBDETAILVIEWSTYLE
  2
AcDbDetailViewStyle
  3
ObjectDBX Classes
 90
     1025
 91
        3
280
     0
281
     0
  0
CLASS
  1
ACDBSECTIONVIEWSTYLE
  2
AcDbSectionViewStyle
  3
ObjectDBX Classes
 90
     1025
 91
        3
280
     0
281
     0
  0
CLASS
  1
RASTERVARIABLES
  2
AcDbRasterVariables
  3
ISM
 90
        0
 91
        3
280
     0
281
     0
  0
CLASS
  1
LAYOUT
  2
AcDbLayout
  3
ObjectDBX Classes
 90
        0
 91
        1
280
     0
281
     0
  0
CLASS
  1
ACDBPLACEHOLDER
  2
AcDbPlaceHolder
  3
ObjectDBX Classes
 90
        0
 91
        1
280
     0
281
     0
  0
ENDSEC
  0
SECTION
  2
TABLES
  0
TABLE
  2
VPORT
  5
8
330
0
100
AcDbSymbolTable
 70
     1
  0
VPORT
  5
10001
330
8
100
AcDbSymbolTableRecord
100
AcDbViewportTableRecord
  2
*Active
 70
     0
 10
0.0
 20
0.0
 11
1.0
 21
1.0
 12
10.42990654205607
 22
4.5
 13
0.0
 23
0.0
 14
0.5
 24
0.5
 15
0.5
 25
0.5
 16
0.0
 26
0.0
 36
1.0
 17
0.0
 27
0.0
 37
0.0
 40
9.0
 41
1.972972972850329
 42
50.0
 43
0.0
 44
0.0
 50
0.0
 51
0.0
 71
     0
 72
   100
 73
     1
 74
     3
 75
     0
 76
     0
 77
     0
 78
     0
281
     0
 65
     1
110
0.0
120
0.0
130
0.0
111
1.0
121
0.0
131
0.0
112
0.0
122
1.0
132
0.0
 79
     0
146
0.0
348
10024
 60
     3
 61
     5
292
     1
282
     1
141
0.0
142
0.0
 63
   250
  0
ENDTAB
  0
TABLE
  2
LTYPE
  5
5
330
0
100
AcDbSymbolTable
 70
     1
  0
LTYPE
  5
14
330
5
100
AcDbSymbolTableRecord
100
AcDbLinetypeTableRecord
  2
BYBLOCK
 70
     0
  3

 72
    65
 73
     0
 40
0.0
  0
LTYPE
  5
15
330
5
100
AcDbSymbolTableRecord
100
AcDbLinetypeTableRecord
  2
BYLAYER
 70
     0
  3

 72
    65
 73
     0
 40
0.0
  0
LTYPE
  5
FFFF
330
5
100
AcDbSymbolTableRecord
100
AcDbLinetypeTableRecord
  2
Continuous
 70
     0
  3
Solid line
 72
    65
 73
     0
 40
0.0
  0
ENDTAB
  0
TABLE
  2
LAYER
  5
2
330
0
100
AcDbSymbolTable
 70
     2
  0
LAYER
  5
50
330
2
100
AcDbSymbolTableRecord
100
AcDbLayerTableRecord
  2
0
 70
     0
 62
     7
  6
Continuous
370
    -3
390
10005
347
1001E
348
0
  0
LAYER
  5
10047
330
2
100
AcDbSymbolTableRecord
100
AcDbLayerTableRecord
  2
Defpoints
 70
     0
 62
     7
  6
Continuous
290
     0
370
    -3
390
10005
347
1001E
348
0
  0
ENDTAB
  0
TABLE
  2
STYLE
  5
3
330
0
100
AcDbSymbolTable
 70
     1
  0
STYLE
  5
11
330
3
100
AcDbSymbolTableRecord
100
AcDbTextStyleTableRecord
  2
STANDARD
 70
     0
 40
0.2
 41
1.0
 50
0.0
 71
     0
 42
0.2
  3

  4

  0
ENDTAB
  0
TABLE
  2
VIEW
  5
6
330
0
100
AcDbSymbolTable
 70
     0
  0
ENDTAB
  0
TABLE
  2
UCS
  5
7
330
0
100
AcDbSymbolTable
 70
     0
  0
ENDTAB
  0
TABLE
  2
APPID
  5
9
330
0
100
AcDbSymbolTable
 70
     3
  0
APPID
  5
12
330
9
100
AcDbSymbolTableRecord
100
AcDbRegAppTableRecord
  2
ACAD
 70
     0
  0
APPID
  5
10064
330
9
100
AcDbSymbolTableRecord
100
AcDbRegAppTableRecord
  2
HATCHBACKGROUNDCOLOR
 70
     0
  0
APPID
  5
10065
330
9
100
AcDbSymbolTableRecord
100
AcDbRegAppTableRecord
  2
EZDXF
 70
     0
  0
ENDTAB
  0
TABLE
  2
DIMSTYLE
  5
A
330
0
100
AcDbSymbolTable
 70
     1
100
AcDbDimStyleTable
  0
DIMSTYLE
105
10000
330
A
100
AcDbSymbolTableRecord
100
AcDbDimStyleTableRecord
  2
Standard
 70
     0
 41
2.5
 42
0.625
 43
3.75
 44
1.25
 49
2.5
 73
     0
 74
     0
 77
     1
 78
     8
 79
     3
140
2.5
141
2.5
143
0.03937007874
147
0.625
171
     3
172
     1
178
     0
179
     2
271
     2
272
     2
274
     3
278
    44
283
     0
284
     8
340
11
  0
ENDTAB
  0
TABLE
  2
BLOCK_RECORD
  5
1
330
0
100
AcDbSymbolTable
 70
     0
  0
BLOCK_RECORD
  5
1F
330
1
100
AcDbSymbolTableRecord
100
AcDbBlockTableRecord
  2
*MODEL_SPACE
340
10019
 70
     0
280
     1
281
     0
  0
BLOCK_RECORD
  5
1B
330
1
100
AcDbSymbolTableRecord
100
AcDbBlockTableRecord
  2
*PAPER_SPACE
340
1001A
 70
     0
280
     1
281
     0
  0
ENDTAB
  0
ENDSEC
  0
SECTION
  2
BLOCKS
  0
BLOCK
  5
20
330
1F
100
AcDbEntity
  8
0
100
AcDbBlockBegin
  2
*MODEL_SPACE
 70
     0
 10
0.0
 20
0.0
 30
0.0
  3
*MODEL_SPACE
  1

  0
ENDBLK
  5
21
330
1F
100
AcDbEntity
  8
0
100
AcDbBlockEnd
  0
BLOCK
  5
1C
330
1B
100
AcDbEntity
 67
     1
  8
0
100
AcDbBlockBegin
  2
*PAPER_SPACE
 70
     0
 10
0.0
 20
0.0
 30
0.0
  3
*PAPER_SPACE
  1

  0
ENDBLK
  5
1D
330
1B
100
AcDbEntity
 67
     1
  8
0
100
AcDbBlockEnd
  0
ENDSEC
  0
SECTION
  2
ENTITIES
  0
LWPOLYLINE
  5
100
330
1F
100
AcDbEntity
  8
0
100
AcDbPolyline
 90
        8
 70
     1
 43
0.0
 10
287.8999989999999
 20
-15.26299998509885
 10
287.8999989999999
 20
-12.55000001490115
 42
-0.4142135623730765
 10
289.4499990000002
 20
-11.00000001490113
 10
343.849999
 20
-11.00000001490114
 42
-0.4142135623731043
 10
345.3999989999999
 20
-12.55000001490115
 10
345.399999
 20
-15.26299998509885
 42
-0.4142135623730832
 10
343.849999
 20
-16.81299998509886
 10
289.4499989999999
 20
-16.81299998509887
 42
-0.4142135623730976
  0
LWPOLYLINE
  5
101
330
1F
100
AcDbEntity
  8
0
100
AcDbPolyline
 90
       62
 70
     1
 43
0.0
 10
2.381250000000026
 20
-120.3265
 10
2.381250000000026
 20
-122.2265
 42
0.4142135623731077
 10
3.931250000000031
 20
-123.7765
 10
70.83125000000001
 20
-123.7765
 42
0.4142135623730985
 10
72.38125
 20
-122.2265
 10
72.38125000000002
 20
-120.3265
 42
-0.4142135623731051
 10
73.93125
 20
-118.7765
 10
154.6687500000001
 20
-118.7765
 42
-0.4142135623730816
 10
156.21875
 20
-120.3265
 10
156.2187500000001
 20
-122.2265
 42
0.4142135623731051
 10
157.7687500000001
 20
-123.7765
 10
224.66875
 20
-123.7765
 42
0.4142135623730951
 10
226.2187500000001
 20
-122.2265
 10
226.2187500000001
 20
-120.3265
 42
-0.4142135623730951
 10
227.7687500000001
 20
-118.7765
 10
288.0630000000004
 20
-118.7765
 42
-0.4142135623730951
 10
289.6130000000004
 20
-120.3265
 10
289.6130000000004
 20
-122.2265
 42
0.4142135623731051
 10
291.1630000000004
 20
-123.7765
 10
358.0630000000003
 20
-123.7765
 42
0.4142135623730849
 10
359.6130000000005
 20
-122.2265
 10
359.6130000000005
 20
-120.3265
 42
-0.4142135623730849
 10
361.1630000000005
 20
-118.7765
 42
0.4142135623730615
 10
362.7130000000002
 20
-117.2265
 10
362.713
 20
7.974999999999994
 42
0.4142135623731253
 10
361.1630000000002
 20
9.525000000000023
 42
-0.4142135623730896
 10
359.6130000000002
 20
11.07500000000001
 10
359.6130000000002
 20
12.975
 42
0.4142135623730518
 10
358.0630000000002
 20
14.52500000000003
 10
291.1630000000001
 20
14.525
 42
0.4142135623730946
 10
289.6130000000001
 20
12.975
 10
289.6130000000001
 20
11.07500000000001
 42
-0.4142135623730963
 10
288.0630000000001
 20
9.525000000000006
 10
265.15
 20
9.524999999999995
 42
-0.4142135623730959
 10
263.6
 20
11.07500000000001
 10
263.6
 20
12.975
 42
0.4142135623730892
 10
262.05
 20
14.52500000000006
 10
195.15
 20
14.52500000000001
 42
0.4142135623730946
 10
193.6
 20
12.975
 10
193.6
 20
11.07500000000001
 42
-0.4142135623730963
 10
192.05
 20
9.525000000000006
 10
169.9000000000001
 20
9.524999999999995
 42
-0.4142135623730959
 10
168.3500000000001
 20
11.07500000000001
 10
168.3500000000001
 20
12.975
 42
0.4142135623730892
 10
166.8
 20
14.52500000000002
 10
99.90000000000008
 20
14.52500000000001
 42
0.414213562373108
 10
98.35000000000008
 20
12.975
 10
98.35000000000005
 20
11.07500000000001
 42
-0.4142135623730968
 10
96.80000000000005
 20
9.525000000000006
 10
74.65000000000002
 20
9.525000000000013
 42
-0.4142135623730849
 10
73.10000000000004
 20
11.07500000000001
 10
73.10000000000004
 20
12.975
 42
0.4142135623731046
 10
71.55000000000003
 20
14.525
 10
4.650000000000043
 20
14.52500000000001
 42
0.4142135623730959
 10
3.100000000000043
 20
12.975
 10
3.100000000000047
 20
11.07500000000001
 42
-0.4142135623730946
 10
1.550000000000047
 20
9.525000000000007
 10
-7.974999999999959
 20
9.525000000000006
 42
0.4142135623730938
 10
-9.52499999999996
 20
7.975000000000012
 10
-9.52499999999997
 20
-117.2265
 42
0.4142135623730999
 10
-7.974999999999969
 20
-118.7765
 10
0.8312500000000256
 20
-118.7765
 42
-0.4142135623731001
  0
CIRCLE
  5
102
330
1F
100
AcDbEntity
  8
0
100
AcDbCircle
 10
38.10000000000002
 20
12.5
 30
0.0
 40
1.049999999999999
  0
CIRCLE
  5
103
330
1F
100
AcDbEntity
  8
0
100
AcDbCircle
 10
133.3500000000001
 20
12.5
 30
0.0
 40
1.049999999999999
  0
CIRCLE
  5
104
330
1F
100
AcDbEntity
  8
0
100
AcDbCircle
 10
228.6
 20
12.5
 30
0.0
 40
1.049999999999986
  0
CIRCLE
  5
105
330
1F
100
AcDbEntity
  8
0
100
AcDbCircle
 10
324.6130000000002
 20
12.5
 30
0.0
 40
1.050000000000019
  0
CIRCLE
  5
106
330
1F
100
AcDbEntity
  8
0
100
AcDbCircle
 10
323.8500000000001
 20
-122.0375
 30
0.0
 40
1.049999999999989
  0
CIRCLE
  5
107
330
1F
100
AcDbEntity
  8
0
100
AcDbCircle
 10
191.2187500000001
 20
-122.0375
 30
0.0
 40
1.049999999999992
  0
CIRCLE
  5
108
330
1F
100
AcDbEntity
  8
0
100
AcDbCircle
 10
37.38125000000001
 20
-121.7515
 30
0.0
 40
1.050000000000002
  0
LWPOLYLINE
  5
109
330
1F
100
AcDbEntity
  8
0
100
AcDbPolyline
 90
        8
 70
     1
 43
0.0
 10
117.025
 20
-7.000000000000001
 10
130.625
 20
-7.000000000000001
 42
0.4142135623730951
 10
131.125
 20
-6.5
 10
131.125
 20
6.5
 42
0.4142135623730951
 10
130.625
 20
7.000000000000001
 10
117.025
 20
7.000000000000001
 42
0.4142123908030417
 10
116.525
 20
6.5
 10
116.525
 20
-6.5
 42
0.4142123908030417
  0
LWPOLYLINE
  5
110
330
1F
100
AcDbEntity
  8
0
100
AcDbPolyline
 90
        8
 70
     1
 43
0.0
 10
207.324999
 20
-53.36300000000001
 10
207.324999
 20
-40.363
 42
0.4142135623730951
 10
206.824999
 20
-39.863
 10
193.224999
 20
-39.863
 42
0.4142123908030397
 10
192.724999
 20
-40.363
 10
192.724999
 20
-53.36300000000001
 42
0.4142123908030397
 10
193.224999
 20
-53.863
 10
206.824999
 20
-53.863
 42
0.4142135623730951
  0
LWPOLYLINE
  5
111
330
1F
100
AcDbEntity
  8
0
100
AcDbPolyline
 90
        8
 70
     1
 43
0.0
 10
140.149999
 20
-20.813
 10
126.549999
 20
-20.813
 42
0.4142135623730951
 10
126.049999
 20
-21.313
 10
126.049999
 20
-34.313
 42
0.4142135623730951
 10
126.549999
 20
-34.813
 10
140.149999
 20
-34.813
 42
0.4142123908030423
 10
140.649999
 20
-34.313
 10
140.649999
 20
-21.313
 42
0.4142123908030397
  0
LWPOLYLINE
  5
113
330
1F
100
AcDbEntity
  8
0
100
AcDbPolyline
 90
        8
 70
     1
 43
0.0
 10
35.874999
 20
-53.36300000000001
 10
35.874999
 20
-40.363
 42
0.4142135623730951
 10
35.374999
 20
-39.863
 10
21.774999
 20
-39.863
 42
0.4142123908030501
 10
21.274999
 20
-40.363
 10
21.274999
 20
-53.36300000000001
 42
0.4142123908030501
 10
21.774999
 20
-53.863
 10
35.374999
 20
-53.863
 42
0.4142135623730951
  0
LWPOLYLINE
  5
114
330
1F
100
AcDbEntity
  8
0
100
AcDbPolyline
 90
        8
 70
     1
 43
0.0
 10
40.32499900000001
 20
-40.363
 10
40.32499900000001
 20
-53.36300000000001
 42
0.4142123908030449
 10
40.82499900000001
 20
-53.863
 10
54.42499900000001
 20
-53.863
 42
0.4142135623730951
 10
54.924999
 20
-53.36300000000001
 10
54.924999
 20
-40.363
 42
0.4142135623730951
 10
54.42499900000001
 20
-39.863
 10
40.82499900000001
 20
-39.863
 42
0.4142123908030449
  0
LWPOLYLINE
  5
115
330
1F
100
AcDbEntity
  8
0
100
AcDbPolyline
 90
        8
 70
     1
 43
0.0
 10
226.374999
 20
-53.36300000000001
 10
226.374999
 20
-40.363
 42
0.4142135623730951
 10
225.874999
 20
-39.863
 10
212.274999
 20
-39.863
 42
0.4142123908030397
 10
211.774999
 20
-40.363
 10
211.774999
 20
-53.36300000000001
 42
0.4142123908030397
 10
212.274999
 20
-53.863
 10
225.874999
 20
-53.863
 42
0.4142135623730951
  0
LWPOLYLINE
  5
116
330
1F
100
AcDbEntity
  8
0
100
AcDbPolyline
 90
        8
 70
     1
 43
0.0
 10
283.403001
 20
-102.7519
 10
283.403001
 20
-115.7519
 42
0.4142123908030554
 10
283.903001
 20
-116.2519
 10
297.503001
 20
-116.2519
 42
0.4142135623730951
 10
298.003001
 20
-115.7519
 10
298.003001
 20
-102.7519
 42
0.4142135623730951
 10
297.503001
 20
-102.2519
 10
283.903001
 20
-102.2519
 42
0.4142123908030658
  0
LWPOLYLINE
  5
117
330
1F
100
AcDbEntity
  8
0
100
AcDbPolyline
 90
        8
 70
     1
 43
0.0
 10
322.388001
 20
-53.36300000000001
 10
322.388001
 20
-40.363
 42
0.4142135623730951
 10
321.888001
 20
-39.863
 10
308.288001
 20
-39.863
 42
0.4142123908030397
 10
307.788001
 20
-40.363
 10
307.788001
 20
-53.36300000000001
 42
0.4142123908030397
 10
308.288001
 20
-53.863
 10
321.888001
 20
-53.863
 42
0.4142135623730951
  0
LWPOLYLINE
  5
118
330
1F
100
AcDbEntity
  8
0
100
AcDbPolyline
 90
        8
 70
     1
 43
0.0
 10
136.075
 20
-7.000000000000001
 10
149.675
 20
-7.000000000000001
 42
0.4142135623730951
 10
150.175
 20
-6.5
 10
150.175
 20
6.5
 42
0.4142135623730951
 10
149.675
 20
7.000000000000001
 10
136.075
 20
7.000000000000001
 42
0.4142123908030521
 10
135.575
 20
6.5
 10
135.575
 20
-6.5
 42
0.4142123908030521
  0
LWPOLYLINE
  5
119
330
1F
100
AcDbEntity
  8
0
100
AcDbPolyline
 90
        8
 70
     1
 43
0.0
 10
235.899999
 20
-21.313
 42
0.4142123908030605
 10
235.399999
 20
-20.813
 10
221.799999
 20
-20.813
 42
0.4142135623730951
 10
221.299999
 20
-21.313
 10
221.299999
 20
-34.313
 42
0.4142135623730951
 10
221.799999
 20
-34.813
 10
235.399999
 20
-34.813
 42
0.4142123908030632
 10
235.899999
 20
-34.313
  0
LWPOLYLINE
  5
120
330
1F
100
AcDbEntity
  8
0
100
AcDbPolyline
 90
        8
 70
     1
 43
0.0
 10
-2.537501
 20
-40.363
 10
-2.537501
 20
-53.36300000000001
 42
0.4142123908030467
 10
-2.037501
 20
-53.863
 10
11.562499
 20
-53.863
 42
0.4142135623730951
 10
12.062499
 20
-53.36300000000001
 10
12.062499
 20
-40.363
 42
0.4142135623730951
 10
11.562499
 20
-39.863
 10
-2.037500999999999
 20
-39.863
 42
0.414212390803047
  0
LWPOLYLINE
  5
121
330
1F
100
AcDbEntity
  8
0
100
AcDbPolyline
 90
        8
 70
     1
 43
0.0
 10
202.75
 20
-7.000000000000001
 10
216.35
 20
-7.000000000000001
 42
0.4142123908030417
 10
216.85
 20
-6.5
 10
216.85
 20
6.5
 42
0.4142123908030417
 10
216.35
 20
7.000000000000001
 10
202.75
 20
7.000000000000001
 42
0.4142135623730951
 10
202.25
 20
6.5
 10
202.25
 20
-6.5
 42
0.4142135623730951
  0
LWPOLYLINE
  5
122
330
1F
100
AcDbEntity
  8
0
100
AcDbPolyline
 90
        8
 70
     1
 43
0.0
 10
216.349999
 20
-20.813
 10
202.749999
 20
-20.813
 42
0.4142135623730951
 10
202.249999
 20
-21.313
 10
202.249999
 20
-34.313
 42
0.4142135623730951
 10
202.749999
 20
-34.813
 10
216.349999
 20
-34.813
 42
0.4142123908030632
 10
216.849999
 20
-34.313
 10
216.849999
 20
-21.313
 42
0.4142123908030605
  0
LWPOLYLINE
  5
123
330
1F
100
AcDbEntity
  8
0
100
AcDbPolyline
 90
        8
 70
     1
 43
0.0
 10
321.888001
 20
-77.963
 10
308.288001
 20
-77.963
 42
0.4142123908030397
 10
307.788001
 20
-78.463
 10
307.788001
 20
-91.463
 42
0.4142123908030449
 10
308.288001
 20
-91.963
 10
321.888001
 20
-91.963
 42
0.4142135623730951
 10
322.388001
 20
-91.463
 10
322.388001
 20
-78.463
 42
0.4142135623730951
  0
LWPOLYLINE
  5
124
330
1F
100
AcDbEntity
  8
0
100
AcDbPolyline
 90
        8
 70
     1
 43
0.0
 10
145.099999
 20
-21.313
 10
145.099999
 20
-34.313
 42
0.4142135623730951
 10
145.599999
 20
-34.813
 10
159.199999
 20
-34.813
 42
0.4142123908030423
 10
159.699999
 20
-34.313
 10
159.699999
 20
-21.313
 42
0.4142123908030397
 10
159.199999
 20
-20.813
 10
145.599999
 20
-20.813
 42
0.4142135623730951
  0
LWPOLYLINE
  5
125
330
1F
100
AcDbEntity
  8
0
100
AcDbPolyline
 90
        8
 70
     1
 43
0.0
 10
321.888001
 20
-20.813
 10
308.288001
 20
-20.813
 42
0.4142123908030397
 10
307.788001
 20
-21.313
 10
307.788001
 20
-34.313
 42
0.4142123908030423
 10
308.288001
 20
-34.813
 10
321.888001
 20
-34.813
 42
0.4142135623730951
 10
322.388001
 20
-34.313
 10
322.388001
 20
-21.313
 42
0.4142135623730951
  0
LWPOLYLINE
  5
126
330
1F
100
AcDbEntity
  8
0
100
AcDbPolyline
 90
        8
 70
     1
 43
0.0
 10
130.624999
 20
-39.863
 10
117.024999
 20
-39.863
 42
0.4142123908030397
 10
116.524999
 20
-40.363
 10
116.524999
 20
-53.36300000000001
 42
0.4142123908030397
 10
117.024999
 20
-53.863
 10
130.624999
 20
-53.863
 42
0.4142135623730951
 10
131.124999
 20
-53.36300000000001
 10
131.124999
 20
-40.363
 42
0.4142135623730951
  0
LWPOLYLINE
  5
127
330
1F
100
AcDbEntity
  8
0
100
AcDbPolyline
 90
        8
 70
     1
 43
0.0
 10
308.288001
 20
-72.91299999999998
 10
321.888001
 20
-72.91299999999998
 42
0.4142135623730951
 10
322.388001
 20
-72.41299999999998
 10
322.388001
 20
-59.413
 42
0.4142135623730951
 10
321.888001
 20
-58.913
 10
308.288001
 20
-58.913
 42
0.4142123908030397
 10
307.788001
 20
-59.413
 10
307.788001
 20
-72.41299999999998
 42
0.4142123908030501
  0
LWPOLYLINE
  5
128
330
1F
100
AcDbEntity
  8
0
100
AcDbPolyline
 90
        8
 70
     1
 43
0.0
 10
221.3
 20
-6.5
 42
0.4142135623730951
 10
221.8
 20
-7.000000000000001
 10
235.4
 20
-7.000000000000001
 42
0.4142123908030417
 10
235.9
 20
-6.5
 10
235.9
 20
6.5
 42
0.4142123908030417
 10
235.4
 20
7.000000000000001
 10
221.8
 20
7.000000000000001
 42
0.4142135623730951
 10
221.3
 20
6.5
  0
LWPOLYLINE
  5
129
330
1F
100
AcDbEntity
  8
0
100
AcDbPolyline
 90
        8
 70
     1
 43
0.0
 10
278.953001
 20
-83.7019
 42
0.4142135623730951
 10
278.453001
 20
-83.20189999999998
 10
264.8530010000001
 20
-83.20189999999998
 42
0.4142123908030554
 10
264.353001
 20
-83.7019
 10
264.353001
 20
-96.7019
 42
0.4142123908030658
 10
264.8530010000001
 20
-97.20190000000001
 10
278.453001
 20
-97.20190000000001
 42
0.4142135623730951
 10
278.953001
 20
-96.7019
  0
LWPOLYLINE
  5
130
330
1F
100
AcDbEntity
  8
0
100
AcDbPolyline
 90
        8
 70
     1
 43
0.0
 10
73.97499899999998
 20
-53.36300000000001
 10
73.97499899999998
 20
-40.363
 42
0.4142135623730951
 10
73.474999
 20
-39.863
 10
59.874999
 20
-39.863
 42
0.4142123908030449
 10
59.374999
 20
-40.363
 10
59.374999
 20
-53.36300000000001
 42
0.4142123908030449
 10
59.874999
 20
-53.863
 10
73.474999
 20
-53.863
 42
0.4142135623730951
  0
LWPOLYLINE
  5
132
330
1F
100
AcDbEntity
  8
0
100
AcDbPolyline
 90
        8
 70
     1
 43
0.0
 10
78.424999
 20
-53.36300000000001
 42
0.4142123908030605
 10
78.92499900000001
 20
-53.863
 10
92.52499900000001
 20
-53.863
 42
0.4142135623730951
 10
93.024999
 20
-53.36300000000001
 10
93.024999
 20
-40.363
 42
0.4142135623730951
 10
92.52499900000001
 20
-39.863
 10
78.92499900000001
 20
-39.863
 42
0.4142123908030605
 10
78.424999
 20
-40.363
  0
LWPOLYLINE
  5
133
330
1F
100
AcDbEntity
  8
0
100
AcDbPolyline
 90
        8
 70
     1
 43
0.0
 10
321.888001
 20
7.000000000000001
 10
308.288001
 20
7.000000000000001
 42
0.4142123908030417
 10
307.788001
 20
6.5
 10
307.788001
 20
-6.5
 42
0.4142123908030417
 10
308.288001
 20
-7.000000000000001
 10
321.888001
 20
-7.000000000000001
 42
0.4142135623730951
 10
322.388001
 20
-6.5
 10
322.388001
 20
6.5
 42
0.4142135623730951
  0
LWPOLYLINE
  5
134
330
1F
100
AcDbEntity
  8
0
100
AcDbPolyline
 90
        8
 70
     1
 43
0.0
 10
149.674999
 20
-39.863
 10
136.074999
 20
-39.863
 42
0.4142123908030501
 10
135.574999
 20
-40.363
 10
135.574999
 20
-53.36300000000001
 42
0.4142123908030501
 10
136.074999
 20
-53.863
 10
149.674999
 20
-53.863
 42
0.4142135623730951
 10
150.174999
 20
-53.36300000000001
 10
150.174999
 20
-40.363
 42
0.4142135623730951
  0
LWPOLYLINE
  5
135
330
1F
100
AcDbEntity
  8
0
100
AcDbPolyline
 90
        8
 70
     1
 43
0.0
 10
289.238001
 20
-91.963
 10
302.838001
 20
-91.963
 42
0.4142135623730951
 10
303.3380010000001
 20
-91.463
 10
303.3380010000001
 20
-78.463
 42
0.4142135623730951
 10
302.838001
 20
-77.963
 10
289.238001
 20
-77.963
 42
0.4142123908030397
 10
288.738001
 20
-78.463
 10
288.738001
 20
-91.463
 42
0.4142123908030449
  0
LWPOLYLINE
  5
136
330
1F
100
AcDbEntity
  8
0
100
AcDbPolyline
 90
        8
 70
     1
 43
0.0
 10
78.237499
 20
-58.913
 10
64.63749899999999
 20
-58.913
 42
0.4142123908030397
 10
64.13749899999999
 20
-59.413
 10
64.13749899999999
 20
-72.41299999999998
 42
0.4142123908030501
 10
64.63749899999999
 20
-72.91299999999998
 10
78.237499
 20
-72.91299999999998
 42
0.4142135623730951
 10
78.737499
 20
-72.41299999999998
 10
78.737499
 20
-59.413
 42
0.4142135623730951
  0
LWPOLYLINE
  5
137
330
1F
100
AcDbEntity
  8
0
100
AcDbPolyline
 90
        8
 70
     1
 43
0.0
 10
69.212499
 20
-91.463
 10
69.212499
 20
-78.463
 42
0.4142123908030501
 10
68.712499
 20
-77.963
 10
55.112499
 20
-77.963
 42
0.4142135623730951
 10
54.612499
 20
-78.463
 10
54.612499
 20
-91.463
 42
0.4142135623730951
 10
55.112499
 20
-91.963
 10
68.712499
 20
-91.963
 42
0.4142123908030554
  0
LWPOLYLINE
  5
138
330
1F
100
AcDbEntity
  8
0
100
AcDbPolyline
 90
        8
 70
     1
 43
0.0
 10
278.453001
 20
-116.2519
 42
0.4142135623730951
 10
278.953001
 20
-115.7519
 10
278.953001
 20
-102.7519
 42
0.4142135623730951
 10
278.453001
 20
-102.2519
 10
264.8530010000001
 20
-102.2519
 42
0.4142123908030658
 10
264.353001
 20
-102.7519
 10
264.353001
 20
-115.7519
 42
0.4142123908030554
 10
264.8530010000001
 20
-116.2519
  0
LWPOLYLINE
  5
139
330
1F
100
AcDbEntity
  8
0
100
AcDbPolyline
 90
        8
 70
     1
 43
0.0
 10
340.938001
 20
-91.963
 42
0.4142123908030449
 10
341.438001
 20
-91.463
 10
341.438001
 20
-78.463
 42
0.4142123908030397
 10
340.938001
 20
-77.963
 10
327.338001
 20
-77.963
 42
0.4142135623730951
 10
326.8380010000001
 20
-78.463
 10
326.8380010000001
 20
-91.463
 42
0.4142135623730951
 10
327.338001
 20
-91.963
  0
LWPOLYLINE
  5
141
330
1F
100
AcDbEntity
  8
0
100
AcDbPolyline
 90
        8
 70
     1
 43
0.0
 10
31.299999
 20
-34.813
 10
44.899999
 20
-34.813
 42
0.4142123908030476
 10
45.39999900000001
 20
-34.313
 10
45.39999900000001
 20
-21.313
 42
0.4142123908030449
 10
44.899999
 20
-20.813
 10
31.299999
 20
-20.813
 42
0.4142135623730951
 10
30.799999
 20
-21.313
 10
30.799999
 20
-34.313
 42
0.4142135623730951
  0
LWPOLYLINE
  5
143
330
1F
100
AcDbEntity
  8
0
100
AcDbPolyline
 90
        8
 70
     1
 43
0.0
 10
303.3380010000001
 20
-21.313
 42
0.4142135623730951
 10
302.838001
 20
-20.813
 10
289.238001
 20
-20.813
 42
0.4142123908030397
 10
288.738001
 20
-21.313
 10
288.738001
 20
-34.313
 42
0.4142123908030423
 10
289.238001
 20
-34.813
 10
302.838001
 20
-34.813
 42
0.4142135623730951
 10
303.3380010000001
 20
-34.313
  0
LWPOLYLINE
  5
144
330
1F
100
AcDbEntity
  8
0
100
AcDbPolyline
 90
        8
 70
     1
 43
0.0
 10
107.499999
 20
-20.813
 42
0.4142135623730951
 10
106.999999
 20
-21.313
 10
106.999999
 20
-34.313
 42
0.4142135623730951
 10
107.499999
 20
-34.813
 10
121.099999
 20
-34.813
 42
0.4142123908030735
 10
121.599999
 20
-34.313
 10
121.599999
 20
-21.313
 42
0.414212390803071
 10
121.099999
 20
-20.813
  0
LWPOLYLINE
  5
145
330
1F
100
AcDbEntity
  8
0
100
AcDbPolyline
 90
        8
 70
     1
 43
0.0
 10
274.0
 20
6.5
 42
0.4142135623730951
 10
273.5
 20
7.000000000000001
 10
259.9
 20
7.000000000000001
 42
0.4142123908030417
 10
259.4
 20
6.5
 10
259.4
 20
-6.5
 42
0.4142123908030417
 10
259.9
 20
-7.000000000000001
 10
273.5
 20
-7.000000000000001
 42
0.4142135623730951
 10
274.0
 20
-6.5
  0
LWPOLYLINE
  5
146
330
1F
100
AcDbEntity
  8
0
100
AcDbPolyline
 90
        8
 70
     1
 43
0.0
 10
83.687499
 20
-58.913
 42
0.4142123908030501
 10
83.187499
 20
-59.413
 10
83.187499
 20
-72.41299999999998
 42
0.4142123908030605
 10
83.687499
 20
-72.91299999999998
 10
97.287499
 20
-72.91299999999998
 42
0.4142135623730951
 10
97.78749900000001
 20
-72.41299999999998
 10
97.78749900000001
 20
-59.413
 42
0.4142135623730951
 10
97.287499
 20
-58.913
  0
LWPOLYLINE
  5
147
330
1F
100
AcDbEntity
  8
0
100
AcDbPolyline
 90
        8
 70
     1
 43
0.0
 10
302.838001
 20
-7.000000000000001
 42
0.4142135623730951
 10
303.3380010000001
 20
-6.5
 10
303.3380010000001
 20
6.5
 42
0.4142135623730951
 10
302.838001
 20
7.000000000000001
 10
289.238001
 20
7.000000000000001
 42
0.4142123908030417
 10
288.738001
 20
6.5
 10
288.738001
 20
-6.5
 42
0.4142123908030417
 10
289.238001
 20
-7.000000000000001
  0
LWPOLYLINE
  5
148
330
1F
100
AcDbEntity
  8
0
100
AcDbPolyline
 90
        8
 70
     1
 43
0.0
 10
102.549999
 20
-34.313
 10
102.549999
 20
-21.313
 42
0.4142123908030397
 10
102.049999
 20
-20.813
 10
88.44999899999999
 20
-20.813
 42
0.4142135623730951
 10
87.94999899999999
 20
-21.313
 10
87.94999899999999
 20
-34.313
 42
0.4142135623730951
 10
88.44999899999999
 20
-34.813
 10
102.049999
 20
-34.813
 42
0.4142123908030423
  0
LWPOLYLINE
  5
150
330
1F
100
AcDbEntity
  8
0
100
AcDbPolyline
 90
        8
 70
     1
 43
0.0
 10
102.050001
 20
-7.000000000000001
 42
0.4142123908030521
 10
102.550001
 20
-6.5
 10
102.550001
 20
6.5
 42
0.4142123908030521
 10
102.050001
 20
7.000000000000001
 10
88.450001
 20
7.000000000000001
 42
0.4142135623730951
 10
87.95000100000001
 20
6.5
 10
87.95000100000001
 20
-6.5
 42
0.4142135623730951
 10
88.450001
 20
-7.000000000000001
  0
LWPOLYLINE
  5
152
330
1F
100
AcDbEntity
  8
0
100
AcDbPolyline
 90
        8
 70
     1
 43
0.0
 10
73.66249899999998
 20
-91.463
 42
0.4142135623730951
 10
74.16249899999998
 20
-91.963
 10
87.76249899999999
 20
-91.963
 42
0.4142123908030554
 10
88.26249899999999
 20
-91.463
 10
88.26249899999999
 20
-78.463
 42
0.4142123908030501
 10
87.76249899999999
 20
-77.963
 10
74.16249899999998
 20
-77.963
 42
0.4142135623730951
 10
73.66249899999998
 20
-78.463
  0
LWPOLYLINE
  5
153
330
1F
100
AcDbEntity
  8
0
100
AcDbPolyline
 90
        8
 70
     1
 43
0.0
 10
49.849999
 20
-34.313
 42
0.4142135623730951
 10
50.349999
 20
-34.813
 10
63.94999900000001
 20
-34.813
 42
0.4142123908030423
 10
64.44999899999999
 20
-34.313
 10
64.44999899999999
 20
-21.313
 42
0.4142123908030397
 10
63.94999900000001
 20
-20.813
 10
50.349999
 20
-20.813
 42
0.4142135623730951
 10
49.849999
 20
-21.313
  0
LWPOLYLINE
  5
154
330
1F
100
AcDbEntity
  8
0
100
AcDbPolyline
 90
        8
 70
     1
 43
0.0
 10
302.838001
 20
-39.863
 10
289.238001
 20
-39.863
 42
0.4142123908030397
 10
288.738001
 20
-40.363
 10
288.738001
 20
-53.36300000000001
 42
0.4142123908030397
 10
289.238001
 20
-53.863
 10
302.838001
 20
-53.863
 42
0.4142135623730951
 10
303.3380010000001
 20
-53.36300000000001
 10
303.3380010000001
 20
-40.363
 42
0.4142135623730951
  0
LWPOLYLINE
  5
155
330
1F
100
AcDbEntity
  8
0
100
AcDbPolyline
 90
        8
 70
     1
 43
0.0
 10
111.574999
 20
-39.863
 10
97.974999
 20
-39.863
 42
0.4142123908030501
 10
97.47499900000001
 20
-40.363
 10
97.47499900000001
 20
-53.36300000000001
 42
0.4142123908030501
 10
97.974999
 20
-53.863
 10
111.574999
 20
-53.863
 42
0.4142135623730951
 10
112.074999
 20
-53.36300000000001
 10
112.074999
 20
-40.363
 42
0.4142135623730951
  0
LWPOLYLINE
  5
156
330
1F
100
AcDbEntity
  8
0
100
AcDbPolyline
 90
        8
 70
     1
 43
0.0
 10
83.499999
 20
-34.313
 10
83.499999
 20
-21.313
 42
0.4142123908030397
 10
82.99999900000002
 20
-20.813
 10
69.39999900000001
 20
-20.813
 42
0.4142135623730951
 10
68.899999
 20
-21.313
 10
68.899999
 20
-34.313
 42
0.4142135623730951
 10
69.39999900000001
 20
-34.813
 10
82.99999900000002
 20
-34.813
 42
0.4142123908030423
  0
LWPOLYLINE
  5
157
330
1F
100
AcDbEntity
  8
0
100
AcDbPolyline
 90
        8
 70
     1
 43
0.0
 10
240.35
 20
-6.5
 42
0.4142123908030417
 10
240.85
 20
-7.000000000000001
 10
254.45
 20
-7.000000000000001
 42
0.4142135623730951
 10
254.95
 20
-6.5
 10
254.95
 20
6.5
 42
0.4142135623730951
 10
254.45
 20
7.000000000000001
 10
240.85
 20
7.000000000000001
 42
0.4142123908030417
 10
240.35
 20
6.5
  0
LWPOLYLINE
  5
158
330
1F
100
AcDbEntity
  8
0
100
AcDbPolyline
 90
        8
 70
     1
 43
0.0
 10
302.838001
 20
-72.91299999999998
 42
0.4142135623730951
 10
303.3380010000001
 20
-72.41299999999998
 10
303.3380010000001
 20
-59.413
 42
0.4142135623730951
 10
302.838001
 20
-58.913
 10
289.238001
 20
-58.913
 42
0.4142123908030397
 10
288.738001
 20
-59.413
 10
288.738001
 20
-72.41299999999998
 42
0.4142123908030501
 10
289.238001
 20
-72.91299999999998
  0
LWPOLYLINE
  5
160
330
1F
100
AcDbEntity
  8
0
100
AcDbPolyline
 90
        8
 70
     1
 43
0.0
 10
327.338001
 20
-58.913
 42
0.4142135623730951
 10
326.8380010000001
 20
-59.413
 10
326.8380010000001
 20
-72.41299999999998
 42
0.4142135623730951
 10
327.338001
 20
-72.91299999999998
 10
340.938001
 20
-72.91299999999998
 42
0.4142123908030501
 10
341.438001
 20
-72.41299999999998
 10
341.438001
 20
-59.413
 42
0.4142123908030397
 10
340.938001
 20
-58.913
  0
LWPOLYLINE
  5
162
330
1F
100
AcDbEntity
  8
0
100
AcDbPolyline
 90
        8
 70
     1
 43
0.0
 10
327.338001
 20
-53.863
 10
340.938001
 20
-53.863
 42
0.4142123908030397
 10
341.438001
 20
-53.36300000000001
 10
341.438001
 20
-40.363
 42
0.4142123908030397
 10
340.938001
 20
-39.863
 10
327.338001
 20
-39.863
 42
0.4142135623730951
 10
326.8380010000001
 20
-40.363
 10
326.8380010000001
 20
-53.36300000000001
 42
0.4142135623730951
  0
LWPOLYLINE
  5
164
330
1F
100
AcDbEntity
  8
0
100
AcDbPolyline
 90
        8
 70
     1
 43
0.0
 10
49.662499
 20
-77.963
 10
36.062499
 20
-77.963
 42
0.4142135623730951
 10
35.562499
 20
-78.463
 10
35.562499
 20
-91.463
 42
0.4142135623730951
 10
36.062499
 20
-91.963
 10
49.662499
 20
-91.963
 42
0.4142123908030501
 10
50.162499
 20
-91.463
 10
50.162499
 20
-78.463
 42
0.4142123908030449
  0
LWPOLYLINE
  5
166
330
1F
100
AcDbEntity
  8
0
100
AcDbPolyline
 90
        8
 70
     1
 43
0.0
 10
26.537499
 20
-72.91299999999998
 10
40.137499
 20
-72.91299999999998
 42
0.4142135623730951
 10
40.63749900000001
 20
-72.41299999999998
 10
40.63749900000001
 20
-59.413
 42
0.4142135623730951
 10
40.137499
 20
-58.913
 10
26.537499
 20
-58.913
 42
0.4142123908030449
 10
26.037499
 20
-59.413
 10
26.037499
 20
-72.41299999999998
 42
0.4142123908030554
  0
LWPOLYLINE
  5
167
330
1F
100
AcDbEntity
  8
0
100
AcDbPolyline
 90
        8
 70
     1
 43
0.0
 10
31.300001
 20
-7.000000000000001
 10
44.900001
 20
-7.000000000000001
 42
0.4142123908030469
 10
45.400001
 20
-6.5
 10
45.400001
 20
6.5
 42
0.4142123908030469
 10
44.900001
 20
7.000000000000001
 10
31.300001
 20
7.000000000000001
 42
0.4142135623730951
 10
30.800001
 20
6.5
 10
30.800001
 20
-6.5
 42
0.4142135623730951
  0
LWPOLYLINE
  5
168
330
1F
100
AcDbEntity
  8
0
100
AcDbPolyline
 90
        8
 70
     1
 43
0.0
 10
360.488001
 20
-21.313
 42
0.4142123908030397
 10
359.9880010000001
 20
-20.813
 10
346.388001
 20
-20.813
 42
0.4142135623730951
 10
345.888001
 20
-21.313
 10
345.888001
 20
-34.313
 42
0.4142135623730951
 10
346.388001
 20
-34.813
 10
359.9880010000001
 20
-34.813
 42
0.4142123908030423
 10
360.488001
 20
-34.313
  0
LWPOLYLINE
  5
169
330
1F
100
AcDbEntity
  8
0
100
AcDbPolyline
 90
        8
 70
     1
 43
0.0
 10
340.938001
 20
-20.813
 10
327.338001
 20
-20.813
 42
0.4142135623730951
 10
326.8380010000001
 20
-21.313
 10
326.8380010000001
 20
-34.313
 42
0.4142135623730951
 10
327.338001
 20
-34.813
 10
340.938001
 20
-34.813
 42
0.4142123908030423
 10
341.438001
 20
-34.313
 10
341.438001
 20
-21.313
 42
0.4142123908030397
  0
LWPOLYLINE
  5
173
330
1F
100
AcDbEntity
  8
0
100
AcDbPolyline
 90
        8
 70
     1
 43
0.0
 10
-7.300000999999999
 20
-34.313
 42
0.4142123908030495
 10
-6.800001
 20
-34.813
 10
6.799998999999999
 20
-34.813
 42
0.4142135623730957
 10
7.299999
 20
-34.313
 10
7.299999
 20
-21.313
 42
0.4142135623730951
 10
6.799999
 20
-20.813
 10
-6.800000999999999
 20
-20.813
 42
0.4142123908030476
 10
-7.300000999999999
 20
-21.313
  0
LWPOLYLINE
  5
174
330
1F
100
AcDbEntity
  8
0
100
AcDbPolyline
 90
        8
 70
     1
 43
0.0
 10
346.388001
 20
-7.000000000000001
 10
359.9880010000001
 20
-7.000000000000001
 42
0.4142123908030417
 10
360.488001
 20
-6.5
 10
360.488001
 20
6.5
 42
0.4142123908030417
 10
359.9880010000001
 20
7.000000000000001
 10
346.388001
 20
7.000000000000001
 42
0.4142135623730951
 10
345.888001
 20
6.5
 10
345.888001
 20
-6.5
 42
0.4142135623730951
  0
LWPOLYLINE
  5
175
330
1F
100
AcDbEntity
  8
0
100
AcDbPolyline
 90
        8
 70
     1
 43
0.0
 10
327.338001
 20
7.000000000000001
 42
0.4142135623730951
 10
326.8380010000001
 20
6.5
 10
326.8380010000001
 20
-6.5
 42
0.4142135623730951
 10
327.338001
 20
-7.000000000000001
 10
340.938001
 20
-7.000000000000001
 42
0.4142123908030417
 10
341.438001
 20
-6.5
 10
341.438001
 20
6.5
 42
0.4142123908030417
 10
340.938001
 20
7.000000000000001
  0
LWPOLYLINE
  5
177
330
1F
100
AcDbEntity
  8
0
100
AcDbPolyline
 90
        8
 70
     1
 43
0.0
 10
6.800000000000001
 20
7.000000000000001
 10
-6.800000000000001
 20
7.000000000000001
 42
0.4142135623730951
 10
-7.3
 20
6.5
 10
-7.3
 20
-6.5
 42
0.4142135623730951
 10
-6.800000000000001
 20
-7.000000000000001
 10
6.800000000000001
 20
-7.000000000000001
 42
0.4142123908030482
 10
7.3
 20
-6.5
 10
7.3
 20
6.5
 42
0.4142123908030482
  0
LWPOLYLINE
  5
178
330
1F
100
AcDbEntity
  8
0
100
AcDbPolyline
 90
        8
 70
     1
 43
0.0
 10
83.00000099999998
 20
7.000000000000001
 10
69.400001
 20
7.000000000000001
 42
0.4142135623730951
 10
68.900001
 20
6.5
 10
68.900001
 20
-6.5
 42
0.4142135623730951
 10
69.400001
 20
-7.000000000000001
 10
83.00000099999998
 20
-7.000000000000001
 42
0.4142123908030625
 10
83.500001
 20
-6.5
 10
83.500001
 20
6.5
 42
0.4142123908030625
  0
LWPOLYLINE
  5
179
330
1F
100
AcDbEntity
  8
0
100
AcDbPolyline
 90
        8
 70
     1
 43
0.0
 10
64.450001
 20
-6.5
 10
64.450001
 20
6.5
 42
0.4142123908030469
 10
63.95000100000001
 20
7.000000000000001
 10
50.35000100000001
 20
7.000000000000001
 42
0.4142135623730951
 10
49.85000100000001
 20
6.5
 10
49.85000100000001
 20
-6.5
 42
0.4142135623730951
 10
50.35000100000001
 20
-7.000000000000001
 10
63.95000100000001
 20
-7.000000000000001
 42
0.4142123908030469
  0
LWPOLYLINE
  5
181
330
1F
100
AcDbEntity
  8
0
100
AcDbPolyline
 90
        8
 70
     1
 43
0.0
 10
12.249999
 20
-20.813
 42
0.4142135623730951
 10
11.749999
 20
-21.313
 10
11.749999
 20
-34.313
 42
0.4142135623730951
 10
12.249999
 20
-34.813
 10
25.849999
 20
-34.813
 42
0.4142123908030501
 10
26.349999
 20
-34.313
 10
26.349999
 20
-21.313
 42
0.4142123908030476
 10
25.849999
 20
-20.813
  0
LWPOLYLINE
  5
182
330
1F
100
AcDbEntity
  8
0
100
AcDbPolyline
 90
        8
 70
     1
 43
0.0
 10
13.943749
 20
-72.91299999999998
 42
0.4142135623730951
 10
14.443749
 20
-72.41299999999998
 10
14.443749
 20
-59.413
 42
0.4142135623730951
 10
13.943749
 20
-58.913
 10
-4.418755000000001
 20
-58.913
 42
0.4142123908030463
 10
-4.918755
 20
-59.413
 10
-4.918755
 20
-72.41299999999998
 42
0.4142123908030569
 10
-4.418755
 20
-72.91299999999998
  0
LWPOLYLINE
  5
183
330
1F
100
AcDbEntity
  8
0
100
AcDbPolyline
 90
        8
 70
     1
 43
0.0
 10
59.18749900000001
 20
-58.913
 10
45.58749900000001
 20
-58.913
 42
0.4142123908030501
 10
45.08749900000001
 20
-59.413
 10
45.08749900000001
 20
-72.41299999999998
 42
0.4142123908030605
 10
45.58749900000001
 20
-72.91299999999998
 10
59.18749900000001
 20
-72.91299999999998
 42
0.4142135623730951
 10
59.687499
 20
-72.41299999999998
 10
59.687499
 20
-59.413
 42
0.4142135623730951
  0
LWPOLYLINE
  5
187
330
1F
100
AcDbEntity
  8
0
100
AcDbPolyline
 90
        8
 70
     1
 43
0.0
 10
221.612499
 20
-91.463
 10
221.612499
 20
-78.463
 42
0.4142123908030189
 10
221.112499
 20
-77.963
 10
207.512499
 20
-77.963
 42
0.4142135623730951
 10
207.012499
 20
-78.463
 10
207.012499
 20
-91.463
 42
0.4142135623730951
 10
207.512499
 20
-91.963
 10
221.112499
 20
-91.963
 42
0.4142123908030241
  0
LWPOLYLINE
  5
188
330
1F
100
AcDbEntity
  8
0
100
AcDbPolyline
 90
        8
 70
     1
 43
0.0
 10
140.837499
 20
-58.913
 42
0.4142123908030293
 10
140.337499
 20
-59.413
 10
140.337499
 20
-72.41299999999998
 42
0.4142123908030397
 10
140.837499
 20
-72.91299999999998
 10
154.437499
 20
-72.91299999999998
 42
0.4142135623730951
 10
154.937499
 20
-72.41299999999998
 10
154.937499
 20
-59.413
 42
0.4142135623730951
 10
154.437499
 20
-58.913
  0
LWPOLYLINE
  5
189
330
1F
100
AcDbEntity
  8
0
100
AcDbPolyline
 90
        8
 70
     1
 43
0.0
 10
155.124999
 20
-53.863
 10
168.724999
 20
-53.863
 42
0.4142135623730951
 10
169.224999
 20
-53.36300000000001
 10
169.224999
 20
-40.363
 42
0.4142135623730951
 10
168.724999
 20
-39.863
 10
155.124999
 20
-39.863
 42
0.4142123908030501
 10
154.624999
 20
-40.363
 10
154.624999
 20
-53.36300000000001
 42
0.4142123908030501
  0
LWPOLYLINE
  5
191
330
1F
100
AcDbEntity
  8
0
100
AcDbPolyline
 90
        8
 70
     1
 43
0.0
 10
259.903001
 20
-102.7519
 42
0.4142135623730951
 10
259.403001
 20
-102.2519
 10
245.803001
 20
-102.2519
 42
0.4142123908030658
 10
245.303001
 20
-102.7519
 10
245.303001
 20
-115.7519
 42
0.4142123908030554
 10
245.803001
 20
-116.2519
 10
259.403001
 20
-116.2519
 42
0.4142135623730951
 10
259.903001
 20
-115.7519
  0
LWPOLYLINE
  5
192
330
1F
100
AcDbEntity
  8
0
100
AcDbPolyline
 90
        8
 70
     1
 43
0.0
 10
168.725
 20
7.000000000000001
 10
155.125
 20
7.000000000000001
 42
0.4142123908030521
 10
154.625
 20
6.5
 10
154.625
 20
-6.5
 42
0.4142123908030521
 10
155.125
 20
-7.000000000000001
 10
168.725
 20
-7.000000000000001
 42
0.4142135623730951
 10
169.225
 20
-6.5
 10
169.225
 20
6.5
 42
0.4142135623730951
  0
LWPOLYLINE
  5
193
330
1F
100
AcDbEntity
  8
0
100
AcDbPolyline
 90
        8
 70
     1
 43
0.0
 10
164.149999
 20
-34.313
 42
0.4142135623730951
 10
164.649999
 20
-34.813
 10
178.249999
 20
-34.813
 42
0.4142123908030423
 10
178.749999
 20
-34.313
 10
178.749999
 20
-21.313
 42
0.4142123908030397
 10
178.249999
 20
-20.813
 10
164.649999
 20
-20.813
 42
0.4142135623730951
 10
164.149999
 20
-21.313
  0
LWPOLYLINE
  5
194
330
1F
100
AcDbEntity
  8
0
100
AcDbPolyline
 90
        8
 70
     1
 43
0.0
 10
174.175
 20
-7.000000000000001
 10
187.775
 20
-7.000000000000001
 42
0.4142123908030625
 10
188.275
 20
-6.5
 10
188.275
 20
6.5
 42
0.4142123908030625
 10
187.775
 20
7.000000000000001
 10
174.175
 20
7.000000000000001
 42
0.4142135623730951
 10
173.675
 20
6.5
 10
173.675
 20
-6.5
 42
0.4142135623730951
  0
LWPOLYLINE
  5
195
330
1F
100
AcDbEntity
  8
0
100
AcDbPolyline
 90
        8
 70
     1
 43
0.0
 10
92.712499
 20
-78.463
 10
92.712499
 20
-91.463
 42
0.4142135623730951
 10
93.212499
 20
-91.963
 10
106.812499
 20
-91.963
 42
0.4142123908030554
 10
107.312499
 20
-91.463
 10
107.312499
 20
-78.463
 42
0.4142123908030501
 10
106.812499
 20
-77.963
 10
93.212499
 20
-77.963
 42
0.4142135623730951
  0
LWPOLYLINE
  5
196
330
1F
100
AcDbEntity
  8
0
100
AcDbPolyline
 90
        8
 70
     1
 43
0.0
 10
111.762499
 20
-78.463
 10
111.762499
 20
-91.463
 42
0.4142135623730951
 10
112.262499
 20
-91.963
 10
125.862499
 20
-91.963
 42
0.4142123908030345
 10
126.362499
 20
-91.463
 10
126.362499
 20
-78.463
 42
0.4142123908030293
 10
125.862499
 20
-77.963
 10
112.262499
 20
-77.963
 42
0.4142135623730951
  0
LWPOLYLINE
  5
197
330
1F
100
AcDbEntity
  8
0
100
AcDbPolyline
 90
        8
 70
     1
 43
0.0
 10
247.806249
 20
-91.463
 10
247.806249
 20
-78.463
 42
0.4142123908030397
 10
247.306249
 20
-77.963
 10
233.706249
 20
-77.963
 42
0.4142135623730951
 10
233.206249
 20
-78.463
 10
233.206249
 20
-91.463
 42
0.4142135623730951
 10
233.706249
 20
-91.963
 10
247.306249
 20
-91.963
 42
0.4142123908030449
  0
LWPOLYLINE
  5
198
330
1F
100
AcDbEntity
  8
0
100
AcDbPolyline
 90
        8
 70
     1
 43
0.0
 10
174.174999
 20
-53.863
 10
187.774999
 20
-53.863
 42
0.4142135623730951
 10
188.274999
 20
-53.36300000000001
 10
188.274999
 20
-40.363
 42
0.4142135623730951
 10
187.774999
 20
-39.863
 10
174.174999
 20
-39.863
 42
0.4142123908030397
 10
173.674999
 20
-40.363
 10
173.674999
 20
-53.36300000000001
 42
0.4142123908030397
  0
LWPOLYLINE
  5
199
330
1F
100
AcDbEntity
  8
0
100
AcDbPolyline
 90
        8
 70
     1
 43
0.0
 10
193.037499
 20
-72.41299999999998
 10
193.037499
 20
-59.413
 42
0.4142135623730951
 10
192.537499
 20
-58.913
 10
178.937499
 20
-58.913
 42
0.4142123908030397
 10
178.437499
 20
-59.413
 10
178.437499
 20
-72.41299999999998
 42
0.4142123908030501
 10
178.937499
 20
-72.91299999999998
 10
192.537499
 20
-72.91299999999998
 42
0.4142135623730951
  0
LWPOLYLINE
  5
200
330
1F
100
AcDbEntity
  8
0
100
AcDbPolyline
 90
        8
 70
     1
 43
0.0
 10
245.424999
 20
-40.363
 42
0.4142135623730951
 10
244.924999
 20
-39.863
 10
231.324999
 20
-39.863
 42
0.4142123908030397
 10
230.824999
 20
-40.363
 10
230.824999
 20
-53.36300000000001
 42
0.4142123908030397
 10
231.324999
 20
-53.863
 10
244.924999
 20
-53.863
 42
0.4142135623730951
 10
245.424999
 20
-53.36300000000001
  0
LWPOLYLINE
  5
202
330
1F
100
AcDbEntity
  8
0
100
AcDbPolyline
 90
        8
 70
     1
 43
0.0
 10
102.237499
 20
-59.413
 10
102.237499
 20
-72.41299999999998
 42
0.414212390803071
 10
102.737499
 20
-72.91299999999998
 10
116.337499
 20
-72.91299999999998
 42
0.4142135623730951
 10
116.837499
 20
-72.41299999999998
 10
116.837499
 20
-59.413
 42
0.4142135623730951
 10
116.337499
 20
-58.913
 10
102.737499
 20
-58.913
 42
0.4142123908030605
  0
LWPOLYLINE
  5
204
330
1F
100
AcDbEntity
  8
0
100
AcDbPolyline
 90
        8
 70
     1
 43
0.0
 10
169.412499
 20
-77.963
 42
0.4142135623730951
 10
168.912499
 20
-78.463
 10
168.912499
 20
-91.463
 42
0.4142135623730951
 10
169.412499
 20
-91.963
 10
183.012499
 20
-91.963
 42
0.4142123908030658
 10
183.512499
 20
-91.463
 10
183.512499
 20
-78.463
 42
0.4142123908030605
 10
183.012499
 20
-77.963
  0
LWPOLYLINE
  5
205
330
1F
100
AcDbEntity
  8
0
100
AcDbPolyline
 90
        8
 70
     1
 43
0.0
 10
216.537499
 20
-59.413
 10
216.537499
 20
-72.41299999999998
 42
0.414212390803071
 10
217.037499
 20
-72.91299999999998
 10
230.637499
 20
-72.91299999999998
 42
0.4142135623730951
 10
231.137499
 20
-72.41299999999998
 10
231.137499
 20
-59.413
 42
0.4142135623730951
 10
230.637499
 20
-58.913
 10
217.037499
 20
-58.913
 42
0.4142123908030605
  0
LWPOLYLINE
  5
206
330
1F
100
AcDbEntity
  8
0
100
AcDbPolyline
 90
        8
 70
     1
 43
0.0
 10
197.299999
 20
-34.813
 42
0.4142123908030423
 10
197.799999
 20
-34.313
 10
197.799999
 20
-21.313
 42
0.4142123908030397
 10
197.299999
 20
-20.813
 10
183.699999
 20
-20.813
 42
0.4142135623730951
 10
183.199999
 20
-21.313
 10
183.199999
 20
-34.313
 42
0.4142135623730951
 10
183.699999
 20
-34.813
  0
LWPOLYLINE
  5
207
330
1F
100
AcDbEntity
  8
0
100
AcDbPolyline
 90
        8
 70
     1
 43
0.0
 10
212.087499
 20
-59.413
 42
0.4142135623730951
 10
211.587499
 20
-58.913
 10
197.987499
 20
-58.913
 42
0.4142123908030605
 10
197.487499
 20
-59.413
 10
197.487499
 20
-72.41299999999998
 42
0.414212390803071
 10
197.987499
 20
-72.91299999999998
 10
211.587499
 20
-72.91299999999998
 42
0.4142135623730951
 10
212.087499
 20
-72.41299999999998
  0
LWPOLYLINE
  5
209
330
1F
100
AcDbEntity
  8
0
100
AcDbPolyline
 90
        8
 70
     1
 43
0.0
 10
144.912499
 20
-91.963
 42
0.4142123908030554
 10
145.412499
 20
-91.463
 10
145.412499
 20
-78.463
 42
0.4142123908030501
 10
144.912499
 20
-77.963
 10
131.312499
 20
-77.963
 42
0.4142135623730951
 10
130.812499
 20
-78.463
 10
130.812499
 20
-91.463
 42
0.4142135623730951
 10
131.312499
 20
-91.963
  0
LWPOLYLINE
  5
210
330
1F
100
AcDbEntity
  8
0
100
AcDbPolyline
 90
        8
 70
     1
 43
0.0
 10
135.887499
 20
-72.41299999999998
 10
135.887499
 20
-59.413
 42
0.4142135623730951
 10
135.387499
 20
-58.913
 10
121.787499
 20
-58.913
 42
0.4142123908030397
 10
121.287499
 20
-59.413
 10
121.287499
 20
-72.41299999999998
 42
0.4142123908030501
 10
121.787499
 20
-72.91299999999998
 10
135.387499
 20
-72.91299999999998
 42
0.4142135623730951
  0
LWPOLYLINE
  5
211
330
1F
100
AcDbEntity
  8
0
100
AcDbPolyline
 90
        8
 70
     1
 43
0.0
 10
173.987499
 20
-59.413
 42
0.4142135623730951
 10
173.487499
 20
-58.913
 10
159.887499
 20
-58.913
 42
0.414212390803071
 10
159.387499
 20
-59.413
 10
159.387499
 20
-72.41299999999998
 42
0.4142123908030813
 10
159.887499
 20
-72.91299999999998
 10
173.487499
 20
-72.91299999999998
 42
0.4142135623730951
 10
173.987499
 20
-72.41299999999998
  0
LWPOLYLINE
  5
212
330
1F
100
AcDbEntity
  8
0
100
AcDbPolyline
 90
        8
 70
     1
 43
0.0
 10
202.562499
 20
-91.463
 10
202.562499
 20
-78.463
 42
0.4142123908030397
 10
202.062499
 20
-77.963
 10
188.462499
 20
-77.963
 42
0.4142135623730951
 10
187.962499
 20
-78.463
 10
187.962499
 20
-91.463
 42
0.4142135623730951
 10
188.462499
 20
-91.963
 10
202.062499
 20
-91.963
 42
0.4142123908030449
  0
LWPOLYLINE
  5
214
330
1F
100
AcDbEntity
  8
0
100
AcDbPolyline
 90
        8
 70
     1
 43
0.0
 10
149.862499
 20
-78.463
 10
149.862499
 20
-91.463
 42
0.4142135623730951
 10
150.362499
 20
-91.963
 10
163.962499
 20
-91.963
 42
0.4142123908030658
 10
164.462499
 20
-91.463
 10
164.462499
 20
-78.463
 42
0.4142123908030605
 10
163.962499
 20
-77.963
 10
150.362499
 20
-77.963
 42
0.4142135623730951
  0
LWPOLYLINE
  5
10049
330
1F
100
AcDbEntity
  8
0
100
AcDbPolyline
 90
        8
 70
     1
 43
0.0
 10
241.174999
 20
-21.338
 10
241.174999
 20
-33.056
 10
244.174999
 20
-34.788
 10
270.1749990000001
 20
-34.788
 10
273.174999
 20
-33.056
 10
273.174999
 20
-21.338
 42
0.4142135623730951
 10
272.6749990000001
 20
-20.838
 10
241.674999
 20
-20.838
 42
0.4142123908030449
  0
LWPOLYLINE
  5
1004A
330
1F
100
AcDbEntity
  8
0
100
AcDbPolyline
 90
        8
 70
     1
 43
0.0
 10
-4.918751
 20
-78.463
 10
-4.918751
 20
-91.463
 42
0.4142135623730951
 10
-4.418751
 20
-91.963
 10
9.181249000000001
 20
-91.963
 42
0.4142123908030521
 10
9.681249
 20
-91.463
 10
9.681249
 20
-78.463
 42
0.4142123908030469
 10
9.181249000000001
 20
-77.963
 10
-4.418751
 20
-77.963
 42
0.4142135623730951
  0
LWPOLYLINE
  5
1004B
330
1F
100
AcDbEntity
  8
0
100
AcDbPolyline
 90
        8
 70
     1
 43
0.0
 10
16.506249
 20
-78.463
 10
16.506249
 20
-91.463
 42
0.4142135623730951
 10
17.006249
 20
-91.963
 10
30.606249
 20
-91.963
 42
0.4142123908030527
 10
31.106249
 20
-91.463
 10
31.106249
 20
-78.463
 42
0.4142123908030476
 10
30.606249
 20
-77.963
 10
17.006249
 20
-77.963
 42
0.4142135623730951
  0
LWPOLYLINE
  5
1004D
330
1F
100
AcDbEntity
  8
0
100
AcDbPolyline
 90
        8
 70
     1
 43
0.0
 10
257.843749
 20
-72.38799999999998
 10
269.561749
 20
-72.38799999999998
 10
271.293749
 20
-69.38799999999999
 10
271.293749
 20
-43.388
 10
269.561749
 20
-40.38800000000001
 10
257.843749
 20
-40.38800000000001
 42
0.4142135623730951
 10
257.343749
 20
-40.888
 10
257.343749
 20
-71.88799999999998
 42
0.414212390803071
  0
LWPOLYLINE
  5
1004E
330
1F
100
AcDbEntity
  8
0
100
AcDbPolyline
 90
        8
 70
     1
 43
0.0
 10
235.587499
 20
-59.413
 10
235.587499
 20
-72.41299999999998
 42
0.414212390803071
 10
236.087499
 20
-72.91299999999998
 10
249.687499
 20
-72.91299999999998
 42
0.4142135623730951
 10
250.187499
 20
-72.41299999999998
 10
250.187499
 20
-59.413
 42
0.4142135623730951
 10
249.687499
 20
-58.913
 10
236.087499
 20
-58.913
 42
0.4142123908030605
  0
LWPOLYLINE
  5
10050
330
1F
100
AcDbEntity
  8
0
100
AcDbPolyline
 90
        8
 70
     1
 43
0.0
 10
345.888001
 20
-59.413
 10
345.888001
 20
-72.41299999999998
 42
0.4142123908030501
 10
346.388001
 20
-72.91299999999998
 10
359.9880010000001
 20
-72.91299999999998
 42
0.4142135623730951
 10
360.488001
 20
-72.41299999999998
 10
360.488001
 20
-59.413
 42
0.4142135623730951
 10
359.9880010000001
 20
-58.913
 10
346.388001
 20
-58.913
 42
0.4142123908030397
  0
LWPOLYLINE
  5
10051
330
1F
100
AcDbEntity
  8
0
100
AcDbPolyline
 90
        8
 70
     1
 43
0.0
 10
345.888001
 20
-40.363
 10
345.888001
 20
-53.36300000000001
 42
0.4142123908030397
 10
346.388001
 20
-53.863
 10
359.9880010000001
 20
-53.863
 42
0.4142135623730951
 10
360.488001
 20
-53.36300000000001
 10
360.488001
 20
-40.363
 42
0.4142135623730951
 10
359.9880010000001
 20
-39.863
 10
346.388001
 20
-39.863
 42
0.4142123908030397
  0
LWPOLYLINE
  5
10053
330
1F
100
AcDbEntity
  8
0
100
AcDbPolyline
 90
        8
 70
     1
 43
0.0
 10
346.713001
 20
-110.488
 10
358.431001
 20
-110.488
 10
360.163001
 20
-107.488
 10
360.163001
 20
-81.488
 10
358.431001
 20
-78.488
 10
346.713001
 20
-78.488
 42
0.4142135623730951
 10
346.2130010000001
 20
-78.988
 10
346.2130010000001
 20
-109.988
 42
0.4142123908030345
  0
LWPOLYLINE
  5
10055
330
1F
100
AcDbEntity
  8
0
100
AcDbPolyline
 90
        8
 70
     1
 43
0.0
 10
308.613001
 20
-97.538
 10
308.613001
 20
-109.256
 10
311.613001
 20
-110.988
 10
337.613001
 20
-110.988
 10
340.6130010000001
 20
-109.256
 10
340.6130010000001
 20
-97.538
 42
0.4142135623730951
 10
340.113001
 20
-97.03800000000001
 10
309.113001
 20
-97.03800000000001
 42
0.4142123908030658
  0
LWPOLYLINE
  5
1005C
330
1F
100
AcDbEntity
  8
0
100
AcDbPolyline
 90
        8
 70
     1
 43
0.0
 10
59.86839999999999
 20
-110.4125
 10
59.8684
 20
-97.5125
 42
-0.4142123908030605
 10
60.36840000000002
 20
-97.0125
 10
72.9684
 20
-97.0125
 42
-0.4142123908030501
 10
73.4684
 20
-97.5125
 10
73.4684
 20
-110.4125
 42
-0.4142123908030501
 10
72.9684
 20
-110.9125
 10
60.36840000000002
 20
-110.9125
 42
-0.4142123908030605
  0
LWPOLYLINE
  5
1005D
330
1F
100
AcDbEntity
  8
0
100
AcDbPolyline
 90
        8
 70
     1
 43
0.0
 10
174.175
 20
-110.4125
 10
174.175
 20
-97.5125
 42
-0.4142135623730951
 10
174.675
 20
-97.0125
 10
187.2749999999999
 20
-97.01250000000003
 42
-0.4142135623731159
 10
187.775
 20
-97.5125
 10
187.775
 20
-110.4125
 42
-0.4142135623730951
 10
187.275
 20
-110.9125
 10
174.675
 20
-110.9125
 42
-0.4142135623731159
  0
LWPOLYLINE
  5
1005E
330
1F
100
AcDbEntity
  8
0
100
AcDbPolyline
 90
        8
 70
     1
 43
0.0
 10
209.20625
 20
-110.9625
 42
0.4142135623730951
 10
209.70625
 20
-110.4625
 10
209.70625
 20
-97.4625
 42
0.4142135623730951
 10
209.20625
 20
-96.96249999999999
 10
195.6062500000116
 20
-96.96249999999999
 42
0.4142123908166451
 10
195.10625
 20
-97.4625000000116
 10
195.10625
 20
-110.4624999999884
 42
0.4142123908166451
 10
195.6062500000116
 20
-110.9625
  0
LWPOLYLINE
  5
1005F
330
1F
100
AcDbEntity
  8
0
100
AcDbPolyline
 90
        8
 70
     1
 43
0.0
 10
233.01875
 20
-110.9625
 42
0.4142135623730951
 10
233.51875
 20
-110.4625
 10
233.51875
 20
-97.4625
 42
0.4142135623730951
 10
233.01875
 20
-96.96249999999999
 10
219.4187500000116
 20
-96.96249999999999
 42
0.4142123908166451
 10
218.91875
 20
-97.4625000000116
 10
218.91875
 20
-110.4624999999884
 42
0.4142123908166451
 10
219.4187500000116
 20
-110.9625
  0
LWPOLYLINE
  5
10060
330
1F
100
AcDbEntity
  8
0
100
AcDbPolyline
 90
        8
 70
     1
 43
0.0
 10
116.525
 20
-97.4625
 10
116.525
 20
-110.4625
 42
0.4142123908030554
 10
117.025
 20
-110.9625
 10
130.625
 20
-110.9625
 42
0.4142135623730951
 10
131.125
 20
-110.4625
 10
131.125
 20
-97.4625
 42
0.4142135623730951
 10
130.625
 20
-96.96249999999999
 10
117.025
 20
-96.96249999999999
 42
0.4142123908030554
  0
LWPOLYLINE
  5
10061
330
1F
100
AcDbEntity
  8
0
100
AcDbPolyline
 90
        8
 70
     1
 43
0.0
 10
52.04375
 20
-110.9625
 42
0.4142135623730951
 10
52.54375
 20
-110.4625
 10
52.54375
 20
-97.4625
 42
0.4142135623730951
 10
52.04375
 20
-96.96249999999999
 10
38.4437500000116
 20
-96.96249999999999
 42
0.4142123908166451
 10
37.94374999999999
 20
-97.4625000000116
 10
37.94374999999999
 20
-110.4624999999884
 42
0.4142123908166451
 10
38.4437500000116
 20
-110.9625
  0
LWPOLYLINE
  5
10062
330
1F
100
AcDbEntity
  8
0
100
AcDbPolyline
 90
        8
 70
     1
 43
0.0
 10
30.6125
 20
-110.9625
 42
0.4142135623730951
 10
31.1125
 20
-110.4625
 10
31.1125
 20
-97.4625
 42
0.4142135623730951
 10
30.6125
 20
-96.96249999999999
 10
17.0125000000116
 20
-96.96249999999999
 42
0.4142123908166451
 10
16.5125
 20
-97.4625000000116
 10
16.5125
 20
-110.4624999999884
 42
0.4142123908166451
 10
17.0125000000116
 20
-110.9625
  0
LWPOLYLINE
  5
10063
330
1F
100
AcDbEntity
  8
0
100
AcDbPolyline
 90
        8
 70
     1
 43
0.0
 10
-4.91875
 20
-97.4625
 10
-4.91875
 20
-110.4625
 42
0.4142123908030514
 10
-4.41875
 20
-110.9625
 10
9.181249999999999
 20
-110.9625
 42
0.4142135623730944
 10
9.68125
 20
-110.4625
 10
9.68125
 20
-97.4625
 42
0.4142135623730951
 10
9.181249999999997
 20
-96.96249999999999
 10
-4.418750000000001
 20
-96.96249999999999
 42
0.4142123908030508
  0
CIRCLE
  5
10068
330
1F
100
AcDbEntity
  8
0
100
AcDbCircle
 10
302.038001
 20
-98.013
 30
0.0
 40
1.325
  0
CIRCLE
  5
10069
330
1F
100
AcDbEntity
  8
0
100
AcDbCircle
 10
302.038001
 20
-98.013
 30
0.0
 40
1.775
  0
CIRCLE
  5
1006A
330
1F
100
AcDbEntity
  8
0
100
AcDbCircle
 10
219.075008
 20
0.0
 30
0.0
 40
1.325
  0
CIRCLE
  5
1006B
330
1F
100
AcDbEntity
  8
0
100
AcDbCircle
 10
219.075008
 20
0.0
 30
0.0
 40
1.775
  0
CIRCLE
  5
1006C
330
1F
100
AcDbEntity
  8
0
100
AcDbCircle
 10
142.874999
 20
-27.813
 30
0.0
 40
1.325
  0
CIRCLE
  5
1006D
330
1F
100
AcDbEntity
  8
0
100
AcDbCircle
 10
142.874999
 20
-27.813
 30
0.0
 40
1.775
  0
CIRCLE
  5
1006E
330
1F
100
AcDbEntity
  8
0
100
AcDbCircle
 10
343.662993
 20
-104.013
 30
0.0
 40
1.325
  0
CIRCLE
  5
1006F
330
1F
100
AcDbEntity
  8
0
100
AcDbCircle
 10
343.662993
 20
-104.013
 30
0.0
 40
1.775
  0
CIRCLE
  5
10070
330
1F
100
AcDbEntity
  8
0
100
AcDbCircle
 10
324.613025
 20
-84.96304800000001
 30
0.0
 40
1.325
  0
CIRCLE
  5
10071
330
1F
100
AcDbEntity
  8
0
100
AcDbCircle
 10
324.613025
 20
-84.96304800000001
 30
0.0
 40
1.775
  0
CIRCLE
  5
10072
330
1F
100
AcDbEntity
  8
0
100
AcDbCircle
 10
109.537513
 20
0.0
 30
0.0
 40
1.325
  0
CIRCLE
  5
10073
330
1F
100
AcDbEntity
  8
0
100
AcDbCircle
 10
109.537513
 20
0.0
 30
0.0
 40
1.775
  0
CIRCLE
  5
10074
330
1F
100
AcDbEntity
  8
0
100
AcDbCircle
 10
305.563009
 20
-27.813
 30
0.0
 40
1.325
  0
CIRCLE
  5
10075
330
1F
100
AcDbEntity
  8
0
100
AcDbCircle
 10
305.563009
 20
-27.813
 30
0.0
 40
1.775
  0
CIRCLE
  5
10076
330
1F
100
AcDbEntity
  8
0
100
AcDbCircle
 10
281.368752
 20
0.0
 30
0.0
 40
1.325
  0
CIRCLE
  5
10077
330
1F
100
AcDbEntity
  8
0
100
AcDbCircle
 10
281.368752
 20
0.0
 30
0.0
 40
1.775
  0
CIRCLE
  5
10078
330
1F
100
AcDbEntity
  8
0
100
AcDbCircle
 10
66.674999
 20
-27.813
 30
0.0
 40
1.325
  0
CIRCLE
  5
10079
330
1F
100
AcDbEntity
  8
0
100
AcDbCircle
 10
66.674999
 20
-27.813
 30
0.0
 40
1.775
  0
CIRCLE
  5
1007A
330
1F
100
AcDbEntity
  8
0
100
AcDbCircle
 10
71.437499
 20
-84.963
 30
0.0
 40
1.325
  0
CIRCLE
  5
1007B
330
1F
100
AcDbEntity
  8
0
100
AcDbCircle
 10
71.437499
 20
-84.963
 30
0.0
 40
1.775
  0
CIRCLE
  5
1007C
330
1F
100
AcDbEntity
  8
0
100
AcDbCircle
 10
305.563009
 20
-65.913032
 30
0.0
 40
1.325
  0
CIRCLE
  5
1007D
330
1F
100
AcDbEntity
  8
0
100
AcDbCircle
 10
305.563009
 20
-65.913032
 30
0.0
 40
1.775
  0
CIRCLE
  5
1007E
330
1F
100
AcDbEntity
  8
0
100
AcDbCircle
 10
343.663041
 20
-27.813
 30
0.0
 40
1.325
  0
CIRCLE
  5
1007F
330
1F
100
AcDbEntity
  8
0
100
AcDbCircle
 10
343.663041
 20
-27.813
 30
0.0
 40
1.775
  0
CIRCLE
  5
10080
330
1F
100
AcDbEntity
  8
0
100
AcDbCircle
 10
343.663041
 20
0.0
 30
0.0
 40
1.325
  0
CIRCLE
  5
10081
330
1F
100
AcDbEntity
  8
0
100
AcDbCircle
 10
343.663041
 20
0.0
 30
0.0
 40
1.775
  0
CIRCLE
  5
10082
330
1F
100
AcDbEntity
  8
0
100
AcDbCircle
 10
-7.143750999999999
 20
-65.91300000000001
 30
0.0
 40
1.325
  0
CIRCLE
  5
10083
330
1F
100
AcDbEntity
  8
0
100
AcDbCircle
 10
-7.143750999999999
 20
-65.91300000000001
 30
0.0
 40
1.775
  0
CIRCLE
  5
10084
330
1F
100
AcDbEntity
  8
0
100
AcDbCircle
 10
19.050016
 20
0.0
 30
0.0
 40
1.325
  0
CIRCLE
  5
10085
330
1F
100
AcDbEntity
  8
0
100
AcDbCircle
 10
19.050016
 20
0.0
 30
0.0
 40
1.775
  0
CIRCLE
  5
10086
330
1F
100
AcDbEntity
  8
0
100
AcDbCircle
 10
16.668749
 20
-46.863
 30
0.0
 40
1.325
  0
CIRCLE
  5
10087
330
1F
100
AcDbEntity
  8
0
100
AcDbCircle
 10
16.668749
 20
-46.863
 30
0.0
 40
1.775
  0
CIRCLE
  5
10088
330
1F
100
AcDbEntity
  8
0
100
AcDbCircle
 10
9.525007
 20
-27.813
 30
0.0
 40
1.325
  0
CIRCLE
  5
10089
330
1F
100
AcDbEntity
  8
0
100
AcDbCircle
 10
9.525007
 20
-27.813
 30
0.0
 40
1.775
  0
CIRCLE
  5
1008A
330
1F
100
AcDbEntity
  8
0
100
AcDbCircle
 10
42.86249900000001
 20
-65.91300000000001
 30
0.0
 40
1.325
  0
CIRCLE
  5
1008B
330
1F
100
AcDbEntity
  8
0
100
AcDbCircle
 10
42.86249900000001
 20
-65.91300000000001
 30
0.0
 40
1.775
  0
CIRCLE
  5
1008C
330
1F
100
AcDbEntity
  8
0
100
AcDbCircle
 10
138.112499
 20
-65.91300000000001
 30
0.0
 40
1.325
  0
CIRCLE
  5
1008D
330
1F
100
AcDbEntity
  8
0
100
AcDbCircle
 10
138.112499
 20
-65.91300000000001
 30
0.0
 40
1.775
  0
CIRCLE
  5
1008E
330
1F
100
AcDbEntity
  8
0
100
AcDbCircle
 10
219.074999
 20
-27.813
 30
0.0
 40
1.325
  0
CIRCLE
  5
1008F
330
1F
100
AcDbEntity
  8
0
100
AcDbCircle
 10
219.074999
 20
-27.813
 30
0.0
 40
1.775
  0
CIRCLE
  5
10090
330
1F
100
AcDbEntity
  8
0
100
AcDbCircle
 10
95.249999
 20
-46.863
 30
0.0
 40
1.325
  0
CIRCLE
  5
10091
330
1F
100
AcDbEntity
  8
0
100
AcDbCircle
 10
95.249999
 20
-46.863
 30
0.0
 40
1.775
  0
CIRCLE
  5
10092
330
1F
100
AcDbEntity
  8
0
100
AcDbCircle
 10
254.793749
 20
-78.87552400000001
 30
0.0
 40
1.325
  0
CIRCLE
  5
10093
330
1F
100
AcDbEntity
  8
0
100
AcDbCircle
 10
254.793749
 20
-78.87552400000001
 30
0.0
 40
1.775
  0
CIRCLE
  5
10094
330
1F
100
AcDbEntity
  8
0
100
AcDbCircle
 10
250.031249
 20
-46.863
 30
0.0
 40
1.325
  0
CIRCLE
  5
10095
330
1F
100
AcDbEntity
  8
0
100
AcDbCircle
 10
250.031249
 20
-46.863
 30
0.0
 40
1.775
  0
CIRCLE
  5
10096
330
1F
100
AcDbEntity
  8
0
100
AcDbCircle
 10
190.499999
 20
-46.863
 30
0.0
 40
1.325
  0
CIRCLE
  5
10097
330
1F
100
AcDbEntity
  8
0
100
AcDbCircle
 10
190.499999
 20
-46.863
 30
0.0
 40
1.775
  0
CIRCLE
  5
10098
330
1F
100
AcDbEntity
  8
0
100
AcDbCircle
 10
185.737499
 20
-84.963
 30
0.0
 40
1.325
  0
CIRCLE
  5
10099
330
1F
100
AcDbEntity
  8
0
100
AcDbCircle
 10
185.737499
 20
-84.963
 30
0.0
 40
1.775
  0
CIRCLE
  5
1009A
330
1F
100
AcDbEntity
  8
0
100
AcDbCircle
 10
262.128009
 20
-109.2519
 30
0.0
 40
1.325
  0
CIRCLE
  5
1009B
330
1F
100
AcDbEntity
  8
0
100
AcDbCircle
 10
262.128009
 20
-109.2519
 30
0.0
 40
1.775
  0
CIRCLE
  5
1009C
330
1F
100
AcDbEntity
  8
0
100
AcDbCircle
 10
171.450008
 20
0.0
 30
0.0
 40
1.325
  0
CIRCLE
  5
1009D
330
1F
100
AcDbEntity
  8
0
100
AcDbCircle
 10
171.450008
 20
0.0
 30
0.0
 40
1.775
  0
CIRCLE
  5
1009E
330
1F
100
AcDbEntity
  8
0
100
AcDbCircle
 10
85.725009
 20
0.0
 30
0.0
 40
1.325
  0
CIRCLE
  5
1009F
330
1F
100
AcDbEntity
  8
0
100
AcDbCircle
 10
85.725009
 20
0.0
 30
0.0
 40
1.775
  0
CIRCLE
  5
100A0
330
1F
100
AcDbEntity
  8
0
100
AcDbCircle
 10
273.574999
 20
-35.013
 30
0.0
 40
1.325
  0
CIRCLE
  5
100A1
330
1F
100
AcDbEntity
  8
0
100
AcDbCircle
 10
273.574999
 20
-35.013
 30
0.0
 40
1.775
  0
CIRCLE
  5
100A2
330
1F
100
AcDbEntity
  8
0
100
AcDbCircle
 10
271.518749
 20
-72.78799999999998
 30
0.0
 40
1.325
  0
CIRCLE
  5
100A3
330
1F
100
AcDbEntity
  8
0
100
AcDbCircle
 10
271.518749
 20
-72.78799999999998
 30
0.0
 40
1.775
  0
CIRCLE
  5
100A4
330
1F
100
AcDbEntity
  8
0
100
AcDbCircle
 10
343.662993
 20
-46.863
 30
0.0
 40
1.325
  0
CIRCLE
  5
100A5
330
1F
100
AcDbEntity
  8
0
100
AcDbCircle
 10
343.662993
 20
-46.863
 30
0.0
 40
1.775
  0
CIRCLE
  5
100A6
330
1F
100
AcDbEntity
  8
0
100
AcDbCircle
 10
360.388001
 20
-110.888
 30
0.0
 40
1.325
  0
CIRCLE
  5
100A7
330
1F
100
AcDbEntity
  8
0
100
AcDbCircle
 10
360.388001
 20
-110.888
 30
0.0
 40
1.775
  0
CIRCLE
  5
100A8
330
1F
100
AcDbEntity
  8
0
100
AcDbCircle
 10
308.213001
 20
-111.213
 30
0.0
 40
1.325
  0
CIRCLE
  5
100A9
330
1F
100
AcDbEntity
  8
0
100
AcDbCircle
 10
308.213001
 20
-111.213
 30
0.0
 40
1.775
  0
CIRCLE
  5
100AA
330
1F
100
AcDbEntity
  8
0
100
AcDbCircle
 10
35.718749
 20
-104.013
 30
0.0
 40
1.325
  0
CIRCLE
  5
100AB
330
1F
100
AcDbEntity
  8
0
100
AcDbCircle
 10
35.718749
 20
-104.013
 30
0.0
 40
1.775
  0
CIRCLE
  5
100AC
330
1F
100
AcDbEntity
  8
0
100
AcDbCircle
 10
216.718778
 20
-104.013
 30
0.0
 40
1.325
  0
CIRCLE
  5
100AD
330
1F
100
AcDbEntity
  8
0
100
AcDbCircle
 10
216.718778
 20
-104.013
 30
0.0
 40
1.775
  0
CIRCLE
  5
100AE
330
1F
100
AcDbEntity
  8
0
100
AcDbCircle
 10
92.72499900000001
 20
-104.013
 30
0.0
 40
1.325
  0
CIRCLE
  5
100AF
330
1F
100
AcDbEntity
  8
0
100
AcDbCircle
 10
92.72499900000001
 20
-104.013
 30
0.0
 40
1.775
  0
CIRCLE
  5
100B0
330
1F
100
AcDbEntity
  8
0
100
AcDbCircle
 10
170.879696
 20
-104.013
 30
0.0
 40
1.325
  0
CIRCLE
  5
100B1
330
1F
100
AcDbEntity
  8
0
100
AcDbCircle
 10
170.879696
 20
-104.013
 30
0.0
 40
1.775
  0
CIRCLE
  5
100B2
330
1F
100
AcDbEntity
  8
0
100
AcDbCircle
 10
147.067176
 20
-104.013
 30
0.0
 40
1.325
  0
CIRCLE
  5
100B3
330
1F
100
AcDbEntity
  8
0
100
AcDbCircle
 10
147.067176
 20
-104.013
 30
0.0
 40
1.775
  0
CIRCLE
  5
100B4
330
1F
100
AcDbEntity
  8
0
100
AcDbCircle
 10
13.096874
 20
-104.013
 30
0.0
 40
1.325
  0
CIRCLE
  5
100B5
330
1F
100
AcDbEntity
  8
0
100
AcDbCircle
 10
13.096874
 20
-104.013
 30
0.0
 40
1.775
  0
ENDSEC
  0
SECTION
  2
OBJECTS
  0
DICTIONARY
  5
C
330
0
100
AcDbDictionary
281
     1
  3
ACAD_COLOR
350
10046
  3
ACAD_DETAILVIEWSTYLE
350
10044
  3
ACAD_GROUP
350
D
  3
ACAD_LAYOUT
350
10018
  3
ACAD_MATERIAL
350
1001B
  3
ACAD_MLEADERSTYLE
350
1003A
  3
ACAD_MLINESTYLE
350
17
  3
ACAD_PLOTSETTINGS
350
10003
  3
ACAD_PLOTSTYLENAME
350
10004
  3
ACAD_SCALELIST
350
10006
  3
ACAD_SECTIONVIEWSTYLE
350
10045
  3
ACAD_TABLESTYLE
350
10038
  3
ACAD_VISUALSTYLE
350
1001F
  3
AcDbVariableDictionary
350
1003C
  3
ACDB_RECOMPOSE_DATA
350
100B8
  3
EZDXF_META
350
10066
  0
DICTIONARY
  5
10046
330
C
100
AcDbDictionary
281
     1
  0
DICTIONARY
  5
10044
102
{ACAD_REACTORS
330
C
102
}
330
C
100
AcDbDictionary
281
     1
  0
DICTIONARY
  5
D
330
C
100
AcDbDictionary
281
     1
  0
DICTIONARY
  5
10018
102
{ACAD_REACTORS
330
C
102
}
330
C
100
AcDbDictionary
281
     1
  3
Layout1
350
1001A
  3
Model
350
10019
  0
DICTIONARY
  5
1001B
102
{ACAD_REACTORS
330
C
102
}
330
C
100
AcDbDictionary
281
     1
  3
ByBlock
350
1001D
  3
ByLayer
350
1001C
  3
Global
350
1001E
  0
DICTIONARY
  5
1003A
102
{ACAD_REACTORS
330
C
102
}
330
C
100
AcDbDictionary
281
     1
  3
Standard
350
1003B
  0
DICTIONARY
  5
17
330
C
100
AcDbDictionary
281
     1
  3
Standard
350
10002
  0
DICTIONARY
  5
10003
102
{ACAD_REACTORS
330
C
102
}
330
C
100
AcDbDictionary
281
     1
  0
ACDBDICTIONARYWDFLT
  5
10004
102
{ACAD_REACTORS
330
C
102
}
330
C
100
AcDbDictionary
281
     1
  3
Normal
350
10005
100
AcDbDictionaryWithDefault
340
10005
  0
DICTIONARY
  5
10006
102
{ACAD_REACTORS
330
C
102
}
330
C
100
AcDbDictionary
281
     1
  3
A0
350
10007
  3
A1
350
10008
  3
A2
350
10009
  3
A3
350
1000A
  3
A4
350
1000B
  3
A5
350
1000C
  3
A6
350
1000D
  3
A7
350
1000E
  3
A8
350
1000F
  3
A9
350
10010
  3
B1
350
10011
  3
B2
350
10012
  3
B3
350
10013
  3
B4
350
10014
  3
B5
350
10015
  3
B6
350
10016
  3
B7
350
10017
  0
DICTIONARY
  5
10045
102
{ACAD_REACTORS
330
C
102
}
330
C
100
AcDbDictionary
281
     1
  0
DICTIONARY
  5
10038
102
{ACAD_REACTORS
330
C
102
}
330
C
100
AcDbDictionary
281
     1
  3
Standard
350
10039
  0
DICTIONARY
  5
1001F
102
{ACAD_REACTORS
330
C
102
}
330
C
100
AcDbDictionary
281
     1
  3
2dWireframe
350
10024
  3
Basic
350
10027
  3
Brighten
350
1002B
  3
ColorChange
350
1002F
  3
Conceptual
350
10029
  3
Dim
350
1002A
  3
EdgeColorOff
350
10032
  3
Facepattern
350
1002E
  3
Flat
350
10020
  3
FlatWithEdges
350
10021
  3
Gouraud
350
10022
  3
GouraudWithEdges
350
10023
  3
Hidden
350
10026
  3
JitterOff
350
10030
  3
Linepattern
350
1002D
  3
OverhangOff
350
10031
  3
Realistic
350
10028
  3
Shaded
350
10037
  3
Shaded with edges
350
10036
  3
Shades of Gray
350
10033
  3
Sketchy
350
10034
  3
Thicken
350
1002C
  3
Wireframe
350
10025
  3
X-Ray
350
10035
  0
DICTIONARY
  5
1003C
102
{ACAD_REACTORS
330
C
102
}
330
C
100
AcDbDictionary
281
     1
  3
CANNOSCALE
350
1003D
  3
CMLEADERSTYLE
350
10042
  3
CTABLESTYLE
350
10041
  3
MSLTSCALE
350
10043
  0
XRECORD
  5
100B8
102
{ACAD_REACTORS
330
C
102
}
330
C
100
AcDbXrecord
280
     1
 90
        1
330
10039
  0
DICTIONARY
  5
10066
330
C
100
AcDbDictionary
281
     1
  3
WRITTEN_BY_EZDXF
350
10067
  0
LAYOUT
  5
1001A
102
{ACAD_REACTORS
330
10018
102
}
330
10018
100
AcDbPlotSettings
  1

  2
none_device
  4

  6

 40
0.0
 41
0.0
 42
0.0
 43
0.0
 44
0.0
 45
0.0
 46
0.0
 47
0.0
 48
0.0
 49
0.0
140
0.0
141
0.0
142
1.0
143
1.0
 70
   688
 72
     0
 73
     0
 74
     5
  7

 75
    16
 76
     0
 77
     2
 78
   300
147
1.0
148
0.0
149
0.0
100
AcDbLayout
  1
Layout1
 70
     1
 71
     1
 10
0.0
 20
0.0
 11
12.0
 21
9.0
 12
0.0
 22
0.0
 32
0.0
 14
1.000000000000000E+20
 24
1.000000000000000E+20
 34
1.000000000000000E+20
 15
-1.000000000000000E+20
 25
-1.000000000000000E+20
 35
-1.000000000000000E+20
146
0.0
 13
0.0
 23
0.0
 33
0.0
 16
1.0
 26
0.0
 36
0.0
 17
0.0
 27
1.0
 37
0.0
 76
     0
330
1B
  0
LAYOUT
  5
10019
102
{ACAD_REACTORS
330
10018
102
}
330
10018
100
AcDbPlotSettings
  1

  2
none_device
  4
Letter_(8.50_x_11.00_Inches)
  6

 40
6.35
 41
6.35
 42
6.35000508
 43
6.35000508
 44
215.9
 45
279.4
 46
0.0
 47
0.0
 48
0.0
 49
0.0
140
0.0
141
0.0
142
1.0
143
2.219594649946486
 70
  1712
 72
     0
 73
     0
 74
     0
  7

 75
     0
 76
     0
 77
     2
 78
   300
147
0.4505327132700153
148
-39.40881537143161
149
0.0
100
AcDbLayout
  1
Model
 70
     1
 71
     0
 10
0.0
 20
0.0
 11
12.0
 21
9.0
 12
0.0
 22
0.0
 32
0.0
 14
1.000000000000000E+20
 24
1.000000000000000E+20
 34
1.000000000000000E+20
 15
-1.000000000000000E+20
 25
-1.000000000000000E+20
 35
-1.000000000000000E+20
146
0.0
 13
0.0
 23
0.0
 33
0.0
 16
1.0
 26
0.0
 36
0.0
 17
0.0
 27
1.0
 37
0.0
 76
     0
330
1F
331
10001
  0
MATERIAL
  5
1001D
102
{ACAD_REACTORS
330
1001B
102
}
330
1001B
100
AcDbMaterial
  1
ByBlock
 72
     1
273
     1
 94
      127
  0
MATERIAL
  5
1001C
102
{ACAD_REACTORS
330
1001B
102
}
330
1001B
100
AcDbMaterial
  1
ByLayer
 72
     1
273
     1
 94
      127
  0
MATERIAL
  5
1001E
102
{ACAD_REACTORS
330
1001B
102
}
330
1001B
100
AcDbMaterial
  1
Global
 72
     1
273
     1
 94
      127
  0
MLEADERSTYLE
  5
1003B
102
{ACAD_REACTORS
330
1003A
102
}
330
1003A
100
AcDbMLeaderStyle
179
     2
170
     2
171
     1
172
     0
 90
        2
 40
0.0
 41
0.0
173
     1
 91
-1056964608
340
14
 92
       -2
290
     1
 42
0.09
291
     1
 43
0.36
  3
Standard
341
0
 44
0.18
300

342
11
174
     1
178
     6
175
     1
176
     0
 93
-1056964608
 45
0.18
292
     0
297
     0
 46
0.18
343
0
 94
-1056964608
 47
1.0
 49
1.0
140
1.0
293
     1
141
0.0
294
     1
177
     0
142
1.0
295
     0
296
     0
143
0.125
271
     0
272
     9
273
     9
298
     0
  0
MLINESTYLE
  5
10002
102
{ACAD_REACTORS
330
17
102
}
330
17
100
AcDbMlineStyle
  2
Standard
 70
     0
  3

 62
   256
 51
90.0
 52
90.0
 71
     2
 49
0.5
 62
   256
  6
BYLAYER
 49
-0.5
 62
   256
  6
BYLAYER
  0
ACDBPLACEHOLDER
  5
10005
102
{ACAD_REACTORS
330
10004
102
}
330
10004
  0
SCALE
  5
10007
102
{ACAD_REACTORS
330
10006
102
}
330
10006
100
AcDbScale
 70
     0
300
1:1
140
1.0
141
1.0
290
     1
  0
SCALE
  5
10008
102
{ACAD_REACTORS
330
10006
102
}
330
10006
100
AcDbScale
 70
     0
300
1/128" = 1'-0"
140
0.0078125
141
12.0
290
     0
  0
SCALE
  5
10009
102
{ACAD_REACTORS
330
10006
102
}
330
10006
100
AcDbScale
 70
     0
300
1/64" = 1'-0"
140
0.015625
141
12.0
290
     0
  0
SCALE
  5
1000A
102
{ACAD_REACTORS
330
10006
102
}
330
10006
100
AcDbScale
 70
     0
300
1/32" = 1'-0"
140
0.03125
141
12.0
290
     0
  0
SCALE
  5
1000B
102
{ACAD_REACTORS
330
10006
102
}
330
10006
100
AcDbScale
 70
     0
300
1/16" = 1'-0"
140
0.0625
141
12.0
290
     0
  0
SCALE
  5
1000C
102
{ACAD_REACTORS
330
10006
102
}
330
10006
100
AcDbScale
 70
     0
300
3/32" = 1'-0"
140
0.09375
141
12.0
290
     0
  0
SCALE
  5
1000D
102
{ACAD_REACTORS
330
10006
102
}
330
10006
100
AcDbScale
 70
     0
300
1/8" = 1'-0"
140
0.125
141
12.0
290
     0
  0
SCALE
  5
1000E
102
{ACAD_REACTORS
330
10006
102
}
330
10006
100
AcDbScale
 70
     0
300
3/16" = 1'-0"
140
0.1875
141
12.0
290
     0
  0
SCALE
  5
1000F
102
{ACAD_REACTORS
330
10006
102
}
330
10006
100
AcDbScale
 70
     0
300
1/4" = 1'-0"
140
0.25
141
12.0
290
     0
  0
SCALE
  5
10010
102
{ACAD_REACTORS
330
10006
102
}
330
10006
100
AcDbScale
 70
     0
300
3/8" = 1'-0"
140
0.375
141
12.0
290
     0
  0
SCALE
  5
10011
102
{ACAD_REACTORS
330
10006
102
}
330
10006
100
AcDbScale
 70
     0
300
1/2" = 1'-0"
140
0.5
141
12.0
290
     0
  0
SCALE
  5
10012
102
{ACAD_REACTORS
330
10006
102
}
330
10006
100
AcDbScale
 70
     0
300
3/4" = 1'-0"
140
0.75
141
12.0
290
     0
  0
SCALE
  5
10013
102
{ACAD_REACTORS
330
10006
102
}
330
10006
100
AcDbScale
 70
     0
300
1" = 1'-0"
140
1.0
141
12.0
290
     0
  0
SCALE
  5
10014
102
{ACAD_REACTORS
330
10006
102
}
330
10006
100
AcDbScale
 70
     0
300
1-1/2" = 1'-0"
140
1.5
141
12.0
290
     0
  0
SCALE
  5
10015
102
{ACAD_REACTORS
330
10006
102
}
330
10006
100
AcDbScale
 70
     0
300
3" = 1'-0"
140
3.0
141
12.0
290
     0
  0
SCALE
  5
10016
102
{ACAD_REACTORS
330
10006
102
}
330
10006
100
AcDbScale
 70
     0
300
6" = 1'-0"
140
6.0
141
12.0
290
     0
  0
SCALE
  5
10017
102
{ACAD_REACTORS
330
10006
102
}
330
10006
100
AcDbScale
 70
     0
300
1'-0" = 1'-0"
140
12.0
141
12.0
290
     0
  0
TABLESTYLE
  5
10039
102
{ACAD_REACTORS
330
10038
102
}
102
{ACAD_XDICTIONARY
360
100B6
102
}
330
10038
100
AcDbTableStyle
  3
Standard
 70
     0
 71
     0
 40
0.06
 41
0.06
280
     0
281
     0
  7
STANDARD
140
0.18
170
     2
 62
     0
 63
   257
283
     0
 90
        4
 91
        0
  1

274
    -2
284
     1
 64
     0
275
    -2
285
     1
 65
     0
276
    -2
286
     1
 66
     0
277
    -2
287
     1
 67
     0
278
    -2
288
     1
 68
     0
279
    -2
289
     1
 69
     0
  7
STANDARD
140
0.25
170
     5
 62
     0
 63
   257
283
     0
 90
        4
 91
        0
  1

274
    -2
284
     1
 64
     0
275
    -2
285
     1
 65
     0
276
    -2
286
     1
 66
     0
277
    -2
287
     1
 67
     0
278
    -2
288
     1
 68
     0
279
    -2
289
     1
 69
     0
  7
STANDARD
140
0.18
170
     5
 62
     0
 63
   257
283
     0
 90
        4
 91
        0
  1

274
    -2
284
     1
 64
     0
275
    -2
285
     1
 65
     0
276
    -2
286
     1
 66
     0
277
    -2
287
     1
 67
     0
278
    -2
288
     1
 68
     0
279
    -2
289
     1
 69
     0
  0
VISUALSTYLE
  5
10024
102
{ACAD_REACTORS
330
1001F
102
}
330
1001F
100
AcDbVisualStyle
  2
2dWireframe
 70
     4
177
     3
291
     0
 70
    58
 90
        0
176
     1
 90
        2
176
     1
 90
        0
176
     1
 90
        0
176
     1
 40
0.6
176
     1
 40
30.0
176
     1
 62
     7
420
 16777215
176
     1
 90
        1
176
     1
 90
        4
176
     1
 62
     7
176
     1
 62
   257
176
     1
 90
        1
176
     1
 90
        1
176
     1
 40
1.0
176
     1
 90
        0
176
     1
 62
   257
176
     1
 40
1.0
176
     1
 90
        1
176
     1
 90
        6
176
     1
 90
        2
176
     1
 62
     7
176
     1
 90
        5
176
     1
 90
        0
176
     1
 90
        0
176
     1
290
     0
176
     1
 90
        1
176
     1
 40
0.0
176
     1
 90
        0
176
     1
290
     1
176
     1
290
     1
176
     1
290
     0
176
     1
290
     0
176
     1
290
     0
176
     1
290
     0
176
     1
290
     0
176
     1
290
     0
176
     1
290
     0
176
     1
 90
       50
176
     1
 40
0.0
176
     1
 40
1.0
176
     1
 90
        0
176
     1
 62
    18
420
        0
176
     1
 90
       50
176
     1
 90
        3
176
     1
 62
     5
420
      255
176
     1
290
     0
176
     1
 90
       50
176
     1
 90
       50
176
     1
 90
       50
176
     1
290
     0
176
     1
 90
       50
176
     1
 62
   256
176
     0
 40
1.0
176
     0
 90
        2
176
     1
  1
strokes_ogs.tif
176
     1
290
     0
176
     1
 40
1.0
176
     1
 40
1.0
176
     1
  0
VISUALSTYLE
  5
10027
102
{ACAD_REACTORS
330
1001F
102
}
330
1001F
100
AcDbVisualStyle
  2
Basic
 70
     7
177
     3
291
     1
 70
    58
 90
        1
176
     1
 90
        0
176
     1
 90
        1
176
     1
 90
        0
176
     1
 40
0.6
176
     1
 40
30.0
176
     1
 62
     7
420
 16777215
176
     1
 90
        0
176
     1
 90
        4
176
     1
 62
     7
176
     1
 62
   257
176
     1
 90
        1
176
     1
 90
        1
176
     1
 40
1.0
176
     1
 90
        8
176
     1
 62
     7
176
     1
 40
1.0
176
     1
 90
        1
176
     1
 90
        6
176
     1
 90
        2
176
     1
 62
     7
176
     1
 90
        5
176
     1
 90
        0
176
     1
 90
        0
176
     1
290
     0
176
     1
 90
        1
176
     1
 40
0.0
176
     1
 90
        0
176
     1
290
     0
176
     1
290
     1
176
     1
290
     1
176
     1
290
     0
176
     1
290
     0
176
     1
290
     0
176
     1
290
     0
176
     1
290
     0
176
     1
290
     0
176
     1
 90
       50
176
     1
 40
0.0
176
     1
 40
1.0
176
     1
 90
        0
176
     1
 62
    18
420
        0
176
     1
 90
       50
176
     1
 90
        3
176
     1
 62
     5
420
      255
176
     1
290
     0
176
     1
 90
       50
176
     1
 90
       50
176
     1
 90
       50
176
     1
290
     0
176
     1
 90
       50
176
     1
 62
   256
176
     0
 40
1.0
176
     0
 90
        2
176
     1
  1
strokes_ogs.tif
176
     1
290
     0
176
     1
 40
1.0
176
     1
 40
1.0
176
     1
  0
VISUALSTYLE
  5
1002B
102
{ACAD_REACTORS
330
1001F
102
}
330
1001F
100
AcDbVisualStyle
  2
Brighten
 70
    12
177
     3
291
     1
 70
    58
 90
        2
176
     1
 90
        2
176
     1
 90
        0
176
     1
 90
        0
176
     1
 40
0.6
176
     1
 40
30.0
176
     1
 62
     7
420
 16777215
176
     1
 90
        1
176
     1
 90
        4
176
     1
 62
     7
176
     1
 62
   257
176
     1
 90
        1
176
     1
 90
        1
176
     1
 40
1.0
176
     1
 90
        8
176
     1
 62
     7
176
     1
 40
1.0
176
     1
 90
        1
176
     1
 90
        6
176
     1
 90
        2
176
     1
 62
     7
176
     1
 90
        5
176
     1
 90
        0
176
     1
 90
        0
176
     1
290
     0
176
     1
 90
        1
176
     1
 40
50.0
176
     1
 90
        0
176
     1
290
     0
176
     1
290
     1
176
     1
290
     1
176
     1
290
     0
176
     1
290
     0
176
     1
290
     0
176
     1
290
     0
176
     1
290
     0
176
     1
290
     0
176
     1
 90
       50
176
     1
 40
0.0
176
     1
 40
1.0
176
     1
 90
        0
176
     1
 62
    18
420
        0
176
     1
 90
       50
176
     1
 90
        3
176
     1
 62
     5
420
      255
176
     1
290
     0
176
     1
 90
       50
176
     1
 90
       50
176
     1
 90
       50
176
     1
290
     0
176
     1
 90
       50
176
     1
 62
   256
176
     0
 40
1.0
176
     0
 90
        2
176
     1
  1
strokes_ogs.tif
176
     1
290
     0
176
     1
 40
1.0
176
     1
 40
1.0
176
     1
  0
VISUALSTYLE
  5
1002F
102
{ACAD_REACTORS
330
1001F
102
}
330
1001F
100
AcDbVisualStyle
  2
ColorChange
 70
    16
177
     3
291
     1
 70
    58
 90
        2
176
     1
 90
        2
176
     1
 90
        3
176
     1
 90
        0
176
     1
 40
0.6
176
     1
 40
30.0
176
     1
 62
     8
420
  8421504
176
     1
 90
        1
176
     1
 90
        4
176
     1
 62
     7
176
     1
 62
   257
176
     1
 90
        1
176
     1
 90
        1
176
     1
 40
1.0
176
     1
 90
        8
176
     1
 62
     8
420
  8421504
176
     1
 40
1.0
176
     1
 90
        1
176
     1
 90
        6
176
     1
 90
        2
176
     1
 62
     7
176
     1
 90
        5
176
     1
 90
        0
176
     1
 90
        0
176
     1
290
     0
176
     1
 90
        1
176
     1
 40
0.0
176
     1
 90
        0
176
     1
290
     0
176
     1
290
     1
176
     1
290
     1
176
     1
290
     0
176
     1
290
     0
176
     1
290
     0
176
     1
290
     0
176
     1
290
     0
176
     1
290
     0
176
     1
 90
       50
176
     1
 40
0.0
176
     1
 40
1.0
176
     1
 90
        0
176
     1
 62
    18
420
        0
176
     1
 90
       50
176
     1
 90
        3
176
     1
 62
     5
420
      255
176
     1
290
     0
176
     1
 90
       50
176
     1
 90
       50
176
     1
 90
       50
176
     1
290
     0
176
     1
 90
       50
176
     1
 62
   256
176
     0
 40
1.0
176
     0
 90
        2
176
     1
  1
strokes_ogs.tif
176
     1
290
     0
176
     1
 40
1.0
176
     1
 40
1.0
176
     1
  0
VISUALSTYLE
  5
10029
102
{ACAD_REACTORS
330
1001F
102
}
330
1001F
100
AcDbVisualStyle
  2
Conceptual
 70
     9
177
     3
291
     0
 70
    58
 90
        3
176
     1
 90
        2
176
     1
 90
        0
176
     1
 90
        0
176
     1
 40
0.6
176
     1
 40
30.0
176
     1
 62
     7
420
 16777215
176
     1
 90
        2
176
     1
 90
        2
176
     1
 62
     7
176
     1
 62
   257
176
     1
 90
        1
176
     1
 90
        1
176
     1
 40
179.0
176
     1
 90
        8
176
     1
 62
     7
176
     1
 40
1.0
176
     1
 90
        1
176
     1
 90
        6
176
     1
 90
        2
176
     1
 62
     7
176
     1
 90
        3
176
     1
 90
        0
176
     1
 90
        0
176
     1
290
     0
176
     1
 90
        1
176
     1
 40
0.0
176
     1
 90
        0
176
     1
290
     0
176
     1
290
     1
176
     1
290
     1
176
     1
290
     0
176
     1
290
     0
176
     1
290
     0
176
     1
290
     0
176
     1
290
     0
176
     1
290
     0
176
     1
 90
       50
176
     1
 40
0.0
176
     1
 40
1.0
176
     1
 90
        0
176
     1
 62
    18
420
        0
176
     1
 90
       50
176
     1
 90
        3
176
     1
 62
     5
420
      255
176
     1
290
     0
176
     1
 90
       50
176
     1
 90
       50
176
     1
 90
       50
176
     1
290
     0
176
     1
 90
       50
176
     1
 62
   256
176
     0
 40
1.0
176
     0
 90
        2
176
     1
  1
strokes_ogs.tif
176
     1
290
     0
176
     1
 40
1.0
176
     1
 40
1.0
176
     1
  0
VISUALSTYLE
  5
1002A
102
{ACAD_REACTORS
330
1001F
102
}
330
1001F
100
AcDbVisualStyle
  2
Dim
 70
    11
177
     3
291
     1
 70
    58
 90
        2
176
     1
 90
        2
176
     1
 90
        0
176
     1
 90
        0
176
     1
 40
0.6
176
     1
 40
30.0
176
     1
 62
     7
420
 16777215
176
     1
 90
        1
176
     1
 90
        4
176
     1
 62
     7
176
     1
 62
   257
176
     1
 90
        1
176
     1
 90
        1
176
     1
 40
1.0
176
     1
 90
        8
176
     1
 62
     7
176
     1
 40
1.0
176
     1
 90
        1
176
     1
 90
        6
176
     1
 90
        2
176
     1
 62
     7
176
     1
 90
        5
176
     1
 90
        0
176
     1
 90
        0
176
     1
290
     0
176
     1
 90
        1
176
     1
 40
-50.0
176
     1
 90
        0
176
     1
290
     0
176
     1
290
     1
176
     1
290
     1
176
     1
290
     0
176
     1
290
     0
176
     1
290
     0
176
     1
290
     0
176
     1
290
     0
176
     1
290
     0
176
     1
 90
       50
176
     1
 40
0.0
176
     1
 40
1.0
176
     1
 90
        0
176
     1
 62
    18
420
        0
176
     1
 90
       50
176
     1
 90
        3
176
     1
 62
     5
420
      255
176
     1
290
     0
176
     1
 90
       50
176
     1
 90
       50
176
     1
 90
       50
176
     1
290
     0
176
     1
 90
       50
176
     1
 62
   256
176
     0
 40
1.0
176
     0
 90
        2
176
     1
  1
strokes_ogs.tif
176
     1
290
     0
176
     1
 40
1.0
176
     1
 40
1.0
176
     1
  0
VISUALSTYLE
  5
10032
102
{ACAD_REACTORS
330
1001F
102
}
330
1001F
100
AcDbVisualStyle
  2
EdgeColorOff
 70
    22
177
     3
291
     1
 70
    58
 90
        2
176
     0
 90
        2
176
     0
 90
        0
176
     0
 90
        0
176
     0
 40
0.6
176
     0
 40
30.0
176
     0
 62
     7
420
 16777215
176
     0
 90
        1
176
     0
 90
        4
176
     0
 62
     7
176
     0
 62
   257
176
     0
 90
        1
176
     0
 90
        1
176
     0
 40
1.0
176
     0
 90
        8
176
     2
 62
     7
176
     0
 40
1.0
176
     0
 90
        1
176
     0
 90
        6
176
     0
 90
        2
176
     0
 62
     7
176
     0
 90
        5
176
     0
 90
        0
176
     0
 90
        0
176
     0
290
     0
176
     0
 90
        1
176
     0
 40
0.0
176
     0
 90
        0
176
     0
290
     0
176
     0
290
     1
176
     0
290
     1
176
     0
290
     0
176
     0
290
     0
176
     0
290
     0
176
     0
290
     0
176
     0
290
     0
176
     0
290
     0
176
     0
 90
       50
176
     0
 40
0.0
176
     0
 40
1.0
176
     0
 90
        0
176
     0
 62
    18
420
        0
176
     0
 90
       50
176
     0
 90
        3
176
     0
 62
     5
420
      255
176
     0
290
     0
176
     0
 90
       50
176
     0
 90
       50
176
     0
 90
       50
176
     0
290
     0
176
     0
 90
       50
176
     0
 62
   256
176
     0
 40
1.0
176
     0
 90
        2
176
     0
  1
strokes_ogs.tif
176
     0
290
     0
176
     0
 40
1.0
176
     0
 40
1.0
176
     0
  0
VISUALSTYLE
  5
1002E
102
{ACAD_REACTORS
330
1001F
102
}
330
1001F
100
AcDbVisualStyle
  2
Facepattern
 70
    15
177
     3
291
     1
 70
    58
 90
        2
176
     1
 90
        2
176
     1
 90
        0
176
     1
 90
        0
176
     1
 40
0.6
176
     1
 40
30.0
176
     1
 62
     7
420
 16777215
176
     1
 90
        1
176
     1
 90
        4
176
     1
 62
     7
176
     1
 62
   257
176
     1
 90
        1
176
     1
 90
        1
176
     1
 40
1.0
176
     1
 90
        8
176
     1
 62
     7
176
     1
 40
1.0
176
     1
 90
        1
176
     1
 90
        6
176
     1
 90
        2
176
     1
 62
     7
176
     1
 90
        5
176
     1
 90
        0
176
     1
 90
        0
176
     1
290
     0
176
     1
 90
        1
176
     1
 40
0.0
176
     1
 90
        0
176
     1
290
     0
176
     1
290
     1
176
     1
290
     1
176
     1
290
     0
176
     1
290
     0
176
     1
290
     0
176
     1
290
     0
176
     1
290
     0
176
     1
290
     0
176
     1
 90
       50
176
     1
 40
0.0
176
     1
 40
1.0
176
     1
 90
        0
176
     1
 62
    18
420
        0
176
     1
 90
       50
176
     1
 90
        3
176
     1
 62
     5
420
      255
176
     1
290
     0
176
     1
 90
       50
176
     1
 90
       50
176
     1
 90
       50
176
     1
290
     0
176
     1
 90
       50
176
     1
 62
   256
176
     0
 40
1.0
176
     0
 90
        2
176
     1
  1
strokes_ogs.tif
176
     1
290
     0
176
     1
 40
1.0
176
     1
 40
1.0
176
     1
  0
VISUALSTYLE
  5
10020
102
{ACAD_REACTORS
330
1001F
102
}
330
1001F
100
AcDbVisualStyle
  2
Flat
 70
     0
177
     3
291
     1
 70
    58
 90
        2
176
     1
 90
        1
176
     1
 90
        1
176
     1
 90
        2
176
     1
 40
0.6
176
     1
 40
30.0
176
     1
 62
     7
420
 16777215
176
     1
 90
        0
176
     1
 90
        0
176
     1
 62
     7
176
     1
 62
   257
176
     1
 90
        1
176
     1
 90
        1
176
     1
 40
1.0
176
     1
 90
        8
176
     1
 62
     7
176
     1
 40
1.0
176
     1
 90
        1
176
     1
 90
        6
176
     1
 90
        2
176
     1
 62
     7
176
     1
 90
        5
176
     1
 90
        0
176
     1
 90
        0
176
     1
290
     0
176
     1
 90
       13
176
     1
 40
0.0
176
     1
 90
        0
176
     1
290
     0
176
     1
290
     1
176
     1
290
     1
176
     1
290
     0
176
     1
290
     0
176
     1
290
     0
176
     1
290
     0
176
     1
290
     0
176
     1
290
     0
176
     1
 90
       50
176
     1
 40
0.0
176
     1
 40
1.0
176
     1
 90
        0
176
     1
 62
    18
420
        0
176
     1
 90
       50
176
     1
 90
        3
176
     1
 62
     5
420
      255
176
     1
290
     0
176
     1
 90
       50
176
     1
 90
       50
176
     1
 90
       50
176
     1
290
     0
176
     1
 90
       50
176
     1
 62
   256
176
     0
 40
1.0
176
     0
 90
        2
176
     1
  1
strokes_ogs.tif
176
     1
290
     0
176
     1
 40
1.0
176
     1
 40
1.0
176
     1
  0
VISUALSTYLE
  5
10021
102
{ACAD_REACTORS
330
1001F
102
}
330
1001F
100
AcDbVisualStyle
  2
FlatWithEdges
 70
     1
177
     3
291
     1
 70
    58
 90
        2
176
     1
 90
        1
176
     1
 90
        1
176
     1
 90
        2
176
     1
 40
0.6
176
     1
 40
30.0
176
     1
 62
     7
420
 16777215
176
     1
 90
        1
176
     1
 90
        0
176
     1
 62
     7
176
     1
 62
   257
176
     1
 90
        1
176
     1
 90
        1
176
     1
 40
1.0
176
     1
 90
        0
176
     1
 62
   257
176
     1
 40
1.0
176
     1
 90
        1
176
     1
 90
        6
176
     1
 90
        2
176
     1
 62
     7
176
     1
 90
        5
176
     1
 90
        0
176
     1
 90
        0
176
     1
290
     0
176
     1
 90
       13
176
     1
 40
0.0
176
     1
 90
        0
176
     1
290
     0
176
     1
290
     1
176
     1
290
     1
176
     1
290
     0
176
     1
290
     0
176
     1
290
     0
176
     1
290
     0
176
     1
290
     0
176
     1
290
     0
176
     1
 90
       50
176
     1
 40
0.0
176
     1
 40
1.0
176
     1
 90
        0
176
     1
 62
    18
420
        0
176
     1
 90
       50
176
     1
 90
        3
176
     1
 62
     5
420
      255
176
     1
290
     0
176
     1
 90
       50
176
     1
 90
       50
176
     1
 90
       50
176
     1
290
     0
176
     1
 90
       50
176
     1
 62
   256
176
     0
 40
1.0
176
     0
 90
        2
176
     1
  1
strokes_ogs.tif
176
     1
290
     0
176
     1
 40
1.0
176
     1
 40
1.0
176
     1
  0
VISUALSTYLE
  5
10022
102
{ACAD_REACTORS
330
1001F
102
}
330
1001F
100
AcDbVisualStyle
  2
Gouraud
 70
     2
177
     3
291
     1
 70
    58
 90
        2
176
     1
 90
        2
176
     1
 90
        1
176
     1
 90
        2
176
     1
 40
0.6
176
     1
 40
30.0
176
     1
 62
     7
420
 16777215
176
     1
 90
        0
176
     1
 90
        0
176
     1
 62
     7
176
     1
 62
   257
176
     1
 90
        1
176
     1
 90
        1
176
     1
 40
1.0
176
     1
 90
        0
176
     1
 62
     7
176
     1
 40
1.0
176
     1
 90
        1
176
     1
 90
        6
176
     1
 90
        2
176
     1
 62
     7
176
     1
 90
        5
176
     1
 90
        0
176
     1
 90
        0
176
     1
290
     0
176
     1
 90
       13
176
     1
 40
0.0
176
     1
 90
        0
176
     1
290
     0
176
     1
290
     1
176
     1
290
     1
176
     1
290
     0
176
     1
290
     0
176
     1
290
     0
176
     1
290
     0
176
     1
290
     0
176
     1
290
     0
176
     1
 90
       50
176
     1
 40
0.0
176
     1
 40
1.0
176
     1
 90
        0
176
     1
 62
    18
420
        0
176
     1
 90
       50
176
     1
 90
        3
176
     1
 62
     5
420
      255
176
     1
290
     0
176
     1
 90
       50
176
     1
 90
       50
176
     1
 90
       50
176
     1
290
     0
176
     1
 90
       50
176
     1
 62
   256
176
     0
 40
1.0
176
     0
 90
        2
176
     1
  1
strokes_ogs.tif
176
     1
290
     0
176
     1
 40
1.0
176
     1
 40
1.0
176
     1
  0
VISUALSTYLE
  5
10023
102
{ACAD_REACTORS
330
1001F
102
}
330
1001F
100
AcDbVisualStyle
  2
GouraudWithEdges
 70
     3
177
     3
291
     1
 70
    58
 90
        2
176
     1
 90
        2
176
     1
 90
        1
176
     1
 90
        2
176
     1
 40
0.6
176
     1
 40
30.0
176
     1
 62
     7
420
 16777215
176
     1
 90
        1
176
     1
 90
        0
176
     1
 62
     7
176
     1
 62
   257
176
     1
 90
        1
176
     1
 90
        1
176
     1
 40
1.0
176
     1
 90
        0
176
     1
 62
   257
176
     1
 40
1.0
176
     1
 90
        1
176
     1
 90
        6
176
     1
 90
        2
176
     1
 62
     7
176
     1
 90
        5
176
     1
 90
        0
176
     1
 90
        0
176
     1
290
     0
176
     1
 90
       13
176
     1
 40
0.0
176
     1
 90
        0
176
     1
290
     0
176
     1
290
     1
176
     1
290
     1
176
     1
290
     0
176
     1
290
     0
176
     1
290
     0
176
     1
290
     0
176
     1
290
     0
176
     1
290
     0
176
     1
 90
       50
176
     1
 40
0.0
176
     1
 40
1.0
176
     1
 90
        0
176
     1
 62
    18
420
        0
176
     1
 90
       50
176
     1
 90
        3
176
     1
 62
     5
420
      255
176
     1
290
     0
176
     1
 90
       50
176
     1
 90
       50
176
     1
 90
       50
176
     1
290
     0
176
     1
 90
       50
176
     1
 62
   256
176
     0
 40
1.0
176
     0
 90
        2
176
     1
  1
strokes_ogs.tif
176
     1
290
     0
176
     1
 40
1.0
176
     1
 40
1.0
176
     1
  0
VISUALSTYLE
  5
10026
102
{ACAD_REACTORS
330
1001F
102
}
330
1001F
100
AcDbVisualStyle
  2
Hidden
 70
     6
177
     3
291
     0
 70
    58
 90
        1
176
     1
 90
        2
176
     1
 90
        2
176
     1
 90
        0
176
     1
 40
0.6
176
     1
 40
30.0
176
     1
 62
     7
420
 16777215
176
     1
 90
        2
176
     1
 90
        2
176
     1
 62
     7
176
     1
 62
   257
176
     1
 90
        2
176
     1
 90
        1
176
     1
 40
40.0
176
     1
 90
        0
176
     1
 62
   257
176
     1
 40
1.0
176
     1
 90
        1
176
     1
 90
        6
176
     1
 90
        2
176
     1
 62
     7
176
     1
 90
        3
176
     1
 90
        0
176
     1
 90
        0
176
     1
290
     0
176
     1
 90
        1
176
     1
 40
0.0
176
     1
 90
        0
176
     1
290
     0
176
     1
290
     1
176
     1
290
     1
176
     1
290
     0
176
     1
290
     0
176
     1
290
     0
176
     1
290
     0
176
     1
290
     0
176
     1
290
     0
176
     1
 90
       50
176
     1
 40
0.0
176
     1
 40
1.0
176
     1
 90
        0
176
     1
 62
    18
420
        0
176
     1
 90
       50
176
     1
 90
        3
176
     1
 62
     5
420
      255
176
     1
290
     0
176
     1
 90
       50
176
     1
 90
       50
176
     1
 90
       50
176
     1
290
     0
176
     1
 90
       50
176
     1
 62
   256
176
     0
 40
1.0
176
     0
 90
        2
176
     1
  1
strokes_ogs.tif
176
     1
290
     0
176
     1
 40
1.0
176
     1
 40
1.0
176
     1
  0
VISUALSTYLE
  5
10030
102
{ACAD_REACTORS
330
1001F
102
}
330
1001F
100
AcDbVisualStyle
  2
JitterOff
 70
    20
177
     3
291
     1
 70
    58
 90
        2
176
     0
 90
        2
176
     0
 90
        0
176
     0
 90
        0
176
     0
 40
0.6
176
     0
 40
30.0
176
     0
 62
     7
420
 16777215
176
     0
 90
        1
176
     0
 90
        4
176
     0
 62
     7
176
     0
 62
   257
176
     0
 90
        1
176
     0
 90
        1
176
     0
 40
1.0
176
     0
 90
       10
176
     2
 62
     7
176
     0
 40
1.0
176
     0
 90
        1
176
     0
 90
        6
176
     0
 90
        2
176
     0
 62
     7
176
     0
 90
        5
176
     0
 90
        0
176
     0
 90
        0
176
     0
290
     0
176
     0
 90
        1
176
     0
 40
0.0
176
     0
 90
        0
176
     0
290
     0
176
     0
290
     1
176
     0
290
     1
176
     0
290
     0
176
     0
290
     0
176
     0
290
     0
176
     0
290
     0
176
     0
290
     0
176
     0
290
     0
176
     0
 90
       50
176
     0
 40
0.0
176
     0
 40
1.0
176
     0
 90
        0
176
     0
 62
    18
420
        0
176
     0
 90
       50
176
     0
 90
        3
176
     0
 62
     5
420
      255
176
     0
290
     0
176
     0
 90
       50
176
     0
 90
       50
176
     0
 90
       50
176
     0
290
     0
176
     0
 90
       50
176
     0
 62
   256
176
     0
 40
1.0
176
     0
 90
        2
176
     0
  1
strokes_ogs.tif
176
     0
290
     0
176
     0
 40
1.0
176
     0
 40
1.0
176
     0
  0
VISUALSTYLE
  5
1002D
102
{ACAD_REACTORS
330
1001F
102
}
330
1001F
100
AcDbVisualStyle
  2
Linepattern
 70
    14
177
     3
291
     1
 70
    58
 90
        2
176
     1
 90
        2
176
     1
 90
        0
176
     1
 90
        0
176
     1
 40
0.6
176
     1
 40
30.0
176
     1
 62
     7
420
 16777215
176
     1
 90
        1
176
     1
 90
        4
176
     1
 62
     7
176
     1
 62
   257
176
     1
 90
        7
176
     1
 90
        7
176
     1
 40
1.0
176
     1
 90
        8
176
     1
 62
     7
176
     1
 40
1.0
176
     1
 90
        1
176
     1
 90
        6
176
     1
 90
        2
176
     1
 62
     7
176
     1
 90
        5
176
     1
 90
        0
176
     1
 90
        0
176
     1
290
     0
176
     1
 90
        1
176
     1
 40
0.0
176
     1
 90
        0
176
     1
290
     0
176
     1
290
     1
176
     1
290
     1
176
     1
290
     0
176
     1
290
     0
176
     1
290
     0
176
     1
290
     0
176
     1
290
     0
176
     1
290
     0
176
     1
 90
       50
176
     1
 40
0.0
176
     1
 40
1.0
176
     1
 90
        0
176
     1
 62
    18
420
        0
176
     1
 90
       50
176
     1
 90
        3
176
     1
 62
     5
420
      255
176
     1
290
     0
176
     1
 90
       50
176
     1
 90
       50
176
     1
 90
       50
176
     1
290
     0
176
     1
 90
       50
176
     1
 62
   256
176
     0
 40
1.0
176
     0
 90
        2
176
     1
  1
strokes_ogs.tif
176
     1
290
     0
176
     1
 40
1.0
176
     1
 40
1.0
176
     1
  0
VISUALSTYLE
  5
10031
102
{ACAD_REACTORS
330
1001F
102
}
330
1001F
100
AcDbVisualStyle
  2
OverhangOff
 70
    21
177
     3
291
     1
 70
    58
 90
        2
176
     0
 90
        2
176
     0
 90
        0
176
     0
 90
        0
176
     0
 40
0.6
176
     0
 40
30.0
176
     0
 62
     7
420
 16777215
176
     0
 90
        1
176
     0
 90
        4
176
     0
 62
     7
176
     0
 62
   257
176
     0
 90
        1
176
     0
 90
        1
176
     0
 40
1.0
176
     0
 90
        9
176
     2
 62
     7
176
     0
 40
1.0
176
     0
 90
        1
176
     0
 90
        6
176
     0
 90
        2
176
     0
 62
     7
176
     0
 90
        5
176
     0
 90
        0
176
     0
 90
        0
176
     0
290
     0
176
     0
 90
        1
176
     0
 40
0.0
176
     0
 90
        0
176
     0
290
     0
176
     0
290
     1
176
     0
290
     1
176
     0
290
     0
176
     0
290
     0
176
     0
290
     0
176
     0
290
     0
176
     0
290
     0
176
     0
290
     0
176
     0
 90
       50
176
     0
 40
0.0
176
     0
 40
1.0
176
     0
 90
        0
176
     0
 62
    18
420
        0
176
     0
 90
       50
176
     0
 90
        3
176
     0
 62
     5
420
      255
176
     0
290
     0
176
     0
 90
       50
176
     0
 90
       50
176
     0
 90
       50
176
     0
290
     0
176
     0
 90
       50
176
     0
 62
   256
176
     0
 40
1.0
176
     0
 90
        2
176
     0
  1
strokes_ogs.tif
176
     0
290
     0
176
     0
 40
1.0
176
     0
 40
1.0
176
     0
  0
VISUALSTYLE
  5
10028
102
{ACAD_REACTORS
330
1001F
102
}
330
1001F
100
AcDbVisualStyle
  2
Realistic
 70
     8
177
     3
291
     0
 70
    58
 90
        2
176
     1
 90
        3
176
     1
 90
        0
176
     1
 90
        2
176
     1
 40
0.6
176
     1
 40
30.0
176
     1
 62
     7
420
 16777215
176
     1
 90
        0
176
     1
 90
        0
176
     1
 62
     7
176
     1
 62
   257
176
     1
 90
        1
176
     1
 90
        1
176
     1
 40
1.0
176
     1
 90
        8
176
     1
 62
   257
176
     1
 40
1.0
176
     1
 90
        1
176
     1
 90
        6
176
     1
 90
        2
176
     1
 62
     7
176
     1
 90
        3
176
     1
 90
        0
176
     1
 90
        0
176
     1
290
     0
176
     1
 90
       13
176
     1
 40
0.0
176
     1
 90
        0
176
     1
290
     0
176
     1
290
     1
176
     1
290
     1
176
     1
290
     0
176
     1
290
     0
176
     1
290
     0
176
     1
290
     0
176
     1
290
     0
176
     1
290
     0
176
     1
 90
       50
176
     1
 40
0.0
176
     1
 40
1.0
176
     1
 90
        0
176
     1
 62
    18
420
        0
176
     1
 90
       50
176
     1
 90
        3
176
     1
 62
     5
420
      255
176
     1
290
     0
176
     1
 90
       50
176
     1
 90
       50
176
     1
 90
       50
176
     1
290
     0
176
     1
 90
       50
176
     1
 62
   256
176
     0
 40
1.0
176
     0
 90
        2
176
     1
  1
strokes_ogs.tif
176
     1
290
     0
176
     1
 40
1.0
176
     1
 40
1.0
176
     1
  0
VISUALSTYLE
  5
10037
102
{ACAD_REACTORS
330
1001F
102
}
330
1001F
100
AcDbVisualStyle
  2
Shaded
 70
    27
177
     3
291
     0
 70
    58
 90
        2
176
     1
 90
        2
176
     1
 90
        1
176
     1
 90
        2
176
     1
 40
0.6
176
     1
 40
30.0
176
     1
 62
     7
420
 16777215
176
     1
 90
        0
176
     1
 90
        4
176
     1
 62
     7
176
     1
 62
   257
176
     1
 90
        1
176
     1
 90
        1
176
     1
 40
1.0
176
     1
 90
        8
176
     1
 62
   257
176
     1
 40
1.0
176
     1
 90
        1
176
     1
 90
        6
176
     1
 90
        2
176
     1
 62
     8
420
  7895160
176
     1
 90
        3
176
     1
 90
        0
176
     1
 90
        0
176
     1
290
     0
176
     1
 90
        5
176
     1
 40
0.0
176
     1
 90
        0
176
     1
290
     0
176
     1
290
     1
176
     1
290
     1
176
     1
290
     0
176
     1
290
     0
176
     1
290
     0
176
     1
290
     0
176
     1
290
     0
176
     1
290
     0
176
     1
 90
       50
176
     1
 40
0.0
176
     1
 40
1.0
176
     1
 90
        0
176
     1
 62
    18
420
        0
176
     1
 90
       50
176
     1
 90
        3
176
     1
 62
     5
420
      255
176
     1
290
     0
176
     1
 90
       50
176
     1
 90
       50
176
     1
 90
       50
176
     1
290
     0
176
     1
 90
       50
176
     1
 62
   256
176
     0
 40
1.0
176
     0
 90
        2
176
     1
  1
strokes_ogs.tif
176
     1
290
     0
176
     1
 40
1.0
176
     1
 40
1.0
176
     1
  0
VISUALSTYLE
  5
10036
102
{ACAD_REACTORS
330
1001F
102
}
330
1001F
100
AcDbVisualStyle
  2
Shaded with edges
 70
    26
177
     3
291
     0
 70
    58
 90
        2
176
     1
 90
        2
176
     1
 90
        1
176
     1
 90
        2
176
     1
 40
0.6
176
     1
 40
30.0
176
     1
 62
     7
420
 16777215
176
     1
 90
        1
176
     1
 90
       10
176
     1
 62
     7
176
     1
 62
   257
176
     1
 90
        2
176
     1
 90
        1
176
     1
 40
1.0
176
     1
 90
        8
176
     1
 62
   257
176
     1
 40
1.0
176
     1
 90
        1
176
     1
 90
        6
176
     1
 90
        2
176
     1
 62
     7
176
     1
 90
        3
176
     1
 90
        0
176
     1
 90
        0
176
     1
290
     0
176
     1
 90
        5
176
     1
 40
0.0
176
     1
 90
        0
176
     1
290
     0
176
     1
290
     1
176
     1
290
     1
176
     1
290
     0
176
     1
290
     0
176
     1
290
     0
176
     1
290
     0
176
     1
290
     0
176
     1
290
     0
176
     1
 90
       50
176
     1
 40
0.0
176
     1
 40
1.0
176
     1
 90
        0
176
     1
 62
    18
420
        0
176
     1
 90
       50
176
     1
 90
        3
176
     1
 62
     5
420
      255
176
     1
290
     0
176
     1
 90
       50
176
     1
 90
       50
176
     1
 90
       50
176
     1
290
     0
176
     1
 90
       50
176
     1
 62
   256
176
     0
 40
1.0
176
     0
 90
        2
176
     1
  1
strokes_ogs.tif
176
     1
290
     0
176
     1
 40
1.0
176
     1
 40
1.0
176
     1
  0
VISUALSTYLE
  5
10033
102
{ACAD_REACTORS
330
1001F
102
}
330
1001F
100
AcDbVisualStyle
  2
Shades of Gray
 70
    23
177
     3
291
     0
 70
    58
 90
        2
176
     1
 90
        2
176
     1
 90
        3
176
     1
 90
        0
176
     1
 40
0.6
176
     1
 40
30.0
176
     1
 62
     7
420
 16777215
176
     1
 90
        2
176
     1
 90
        2
176
     1
 62
     7
176
     1
 62
     7
176
     1
 90
        1
176
     1
 90
        1
176
     1
 40
40.0
176
     1
 90
        8
176
     1
 62
     7
176
     1
 40
1.0
176
     1
 90
        1
176
     1
 90
        6
176
     1
 90
        2
176
     1
 62
     7
176
     1
 90
        3
176
     1
 90
        0
176
     1
 90
        0
176
     1
290
     0
176
     1
 90
        1
176
     1
 40
0.0
176
     1
 90
        0
176
     1
290
     0
176
     1
290
     1
176
     1
290
     1
176
     1
290
     0
176
     1
290
     0
176
     1
290
     0
176
     1
290
     0
176
     1
290
     0
176
     1
290
     0
176
     1
 90
       50
176
     1
 40
0.0
176
     1
 40
1.0
176
     1
 90
        0
176
     1
 62
    18
420
        0
176
     1
 90
       50
176
     1
 90
        3
176
     1
 62
     5
420
      255
176
     1
290
     0
176
     1
 90
       50
176
     1
 90
       50
176
     1
 90
       50
176
     1
290
     0
176
     1
 90
       50
176
     1
 62
   256
176
     0
 40
1.0
176
     0
 90
        2
176
     1
  1
strokes_ogs.tif
176
     1
290
     0
176
     1
 40
1.0
176
     1
 40
1.0
176
     1
  0
VISUALSTYLE
  5
10034
102
{ACAD_REACTORS
330
1001F
102
}
330
1001F
100
AcDbVisualStyle
  2
Sketchy
 70
    24
177
     3
291
     0
 70
    58
 90
        1
176
     1
 90
        2
176
     1
 90
        2
176
     1
 90
        0
176
     1
 40
0.6
176
     1
 40
30.0
176
     1
 62
     7
420
 16777215
176
     1
 90
        2
176
     1
 90
        2
176
     1
 62
     7
176
     1
 62
     7
176
     1
 90
        1
176
     1
 90
        1
176
     1
 40
40.0
176
     1
 90
       11
176
     1
 62
     7
176
     1
 40
1.0
176
     1
 90
        1
176
     1
 90
        6
176
     1
 90
        2
176
     1
 62
     7
176
     1
 90
        6
176
     1
 90
        0
176
     1
 90
        0
176
     1
290
     0
176
     1
 90
        1
176
     1
 40
0.0
176
     1
 90
        0
176
     1
290
     0
176
     1
290
     1
176
     1
290
     1
176
     1
290
     0
176
     1
290
     0
176
     1
290
     0
176
     1
290
     0
176
     1
290
     0
176
     1
290
     0
176
     1
 90
       50
176
     1
 40
0.0
176
     1
 40
1.0
176
     1
 90
        0
176
     1
 62
    18
420
        0
176
     1
 90
       50
176
     1
 90
        3
176
     1
 62
     5
420
      255
176
     1
290
     0
176
     1
 90
       50
176
     1
 90
       50
176
     1
 90
       50
176
     1
290
     0
176
     1
 90
       50
176
     1
 62
   256
176
     0
 40
1.0
176
     0
 90
        2
176
     1
  1
strokes_ogs.tif
176
     1
290
     0
176
     1
 40
1.0
176
     1
 40
1.0
176
     1
  0
VISUALSTYLE
  5
1002C
102
{ACAD_REACTORS
330
1001F
102
}
330
1001F
100
AcDbVisualStyle
  2
Thicken
 70
    13
177
     3
291
     1
 70
    58
 90
        2
176
     1
 90
        2
176
     1
 90
        0
176
     1
 90
        0
176
     1
 40
0.6
176
     1
 40
30.0
176
     1
 62
     7
420
 16777215
176
     1
 90
        1
176
     1
 90
        4
176
     1
 62
     7
176
     1
 62
   257
176
     1
 90
        1
176
     1
 90
        1
176
     1
 40
1.0
176
     1
 90
       12
176
     1
 62
     7
176
     1
 40
1.0
176
     1
 90
        1
176
     1
 90
        6
176
     1
 90
        2
176
     1
 62
     7
176
     1
 90
        5
176
     1
 90
        0
176
     1
 90
        0
176
     1
290
     0
176
     1
 90
        1
176
     1
 40
0.0
176
     1
 90
        0
176
     1
290
     0
176
     1
290
     1
176
     1
290
     1
176
     1
290
     0
176
     1
290
     0
176
     1
290
     0
176
     1
290
     0
176
     1
290
     0
176
     1
290
     0
176
     1
 90
       50
176
     1
 40
0.0
176
     1
 40
1.0
176
     1
 90
        0
176
     1
 62
    18
420
        0
176
     1
 90
       50
176
     1
 90
        3
176
     1
 62
     5
420
      255
176
     1
290
     0
176
     1
 90
       50
176
     1
 90
       50
176
     1
 90
       50
176
     1
290
     0
176
     1
 90
       50
176
     1
 62
   256
176
     0
 40
1.0
176
     0
 90
        2
176
     1
  1
strokes_ogs.tif
176
     1
290
     0
176
     1
 40
1.0
176
     1
 40
1.0
176
     1
  0
VISUALSTYLE
  5
10025
102
{ACAD_REACTORS
330
1001F
102
}
330
1001F
100
AcDbVisualStyle
  2
Wireframe
 70
     5
177
     3
291
     0
 70
    58
 90
        0
176
     1
 90
        2
176
     1
 90
        0
176
     1
 90
        0
176
     1
 40
0.6
176
     1
 40
30.0
176
     1
 62
     7
420
 16777215
176
     1
 90
        1
176
     1
 90
        4
176
     1
 62
     7
176
     1
 62
   257
176
     1
 90
        1
176
     1
 90
        1
176
     1
 40
1.0
176
     1
 90
        0
176
     1
 62
   257
176
     1
 40
1.0
176
     1
 90
        1
176
     1
 90
        6
176
     1
 90
        2
176
     1
 62
     7
176
     1
 90
        3
176
     1
 90
        0
176
     1
 90
        0
176
     1
290
     0
176
     1
 90
        1
176
     1
 40
0.0
176
     1
 90
        0
176
     1
290
     0
176
     1
290
     1
176
     1
290
     1
176
     1
290
     0
176
     1
290
     0
176
     1
290
     0
176
     1
290
     0
176
     1
290
     0
176
     1
290
     0
176
     1
 90
       50
176
     1
 40
0.0
176
     1
 40
1.0
176
     1
 90
        0
176
     1
 62
    18
420
        0
176
     1
 90
       50
176
     1
 90
        3
176
     1
 62
     5
420
      255
176
     1
290
     0
176
     1
 90
       50
176
     1
 90
       50
176
     1
 90
       50
176
     1
290
     0
176
     1
 90
       50
176
     1
 62
   256
176
     0
 40
1.0
176
     0
 90
        2
176
     1
  1
strokes_ogs.tif
176
     1
290
     0
176
     1
 40
1.0
176
     1
 40
1.0
176
     1
  0
VISUALSTYLE
  5
10035
102
{ACAD_REACTORS
330
1001F
102
}
330
1001F
100
AcDbVisualStyle
  2
X-Ray
 70
    25
177
     3
291
     0
 70
    58
 90
        2
176
     1
 90
        2
176
     1
 90
        1
176
     1
 90
        1
176
     1
 40
0.5
176
     1
 40
30.0
176
     1
 62
     7
420
 16777215
176
     1
 90
        1
176
     1
 90
        0
176
     1
 62
     7
176
     1
 62
   257
176
     1
 90
        1
176
     1
 90
        1
176
     1
 40
1.0
176
     1
 90
        8
176
     1
 62
     7
176
     1
 40
1.0
176
     1
 90
        1
176
     1
 90
        6
176
     1
 90
        2
176
     1
 62
     7
176
     1
 90
        3
176
     1
 90
        0
176
     1
 90
        0
176
     1
290
     0
176
     1
 90
       13
176
     1
 40
0.0
176
     1
 90
        0
176
     1
290
     0
176
     1
290
     1
176
     1
290
     1
176
     1
290
     0
176
     1
290
     0
176
     1
290
     0
176
     1
290
     0
176
     1
290
     0
176
     1
290
     0
176
     1
 90
       50
176
     1
 40
0.0
176
     1
 40
1.0
176
     1
 90
        0
176
     1
 62
    18
420
        0
176
     1
 90
       50
176
     1
 90
        3
176
     1
 62
     5
420
      255
176
     1
290
     0
176
     1
 90
       50
176
     1
 90
       50
176
     1
 90
       50
176
     1
290
     0
176
     1
 90
       50
176
     1
 62
   256
176
     0
 40
1.0
176
     0
 90
        2
176
     1
  1
strokes_ogs.tif
176
     1
290
     0
176
     1
 40
1.0
176
     1
 40
1.0
176
     1
  0
DICTIONARYVAR
  5
1003D
102
{ACAD_REACTORS
330
1003C
102
}
330
1003C
100
DictionaryVariables
280
     0
  1
1:1
  0
DICTIONARYVAR
  5
10042
102
{ACAD_REACTORS
330
1003C
102
}
330
1003C
100
DictionaryVariables
280
     0
  1
Standard
  0
DICTIONARYVAR
  5
10041
102
{ACAD_REACTORS
330
1003C
102
}
330
1003C
100
DictionaryVariables
280
     0
  1
Standard
  0
DICTIONARYVAR
  5
10043
102
{ACAD_REACTORS
330
1003C
102
}
330
1003C
100
DictionaryVariables
280
     0
  1
0
  0
DICTIONARYVAR
  5
10067
330
10066
100
DictionaryVariables
280
     0
  1
1.3.4 @ 2024-10-18T15:58:55.617158+00:00
  0
DICTIONARY
  5
100B6
330
10039
100
AcDbDictionary
280
     1
281
     1
  3
ACAD_ROUNDTRIP_2008_TABLESTYLE_CELLSTYLEMAP
360
100B7
  0
CELLSTYLEMAP
  5
100B7
102
{ACAD_REACTORS
330
100B6
102
}
330
100B6
100
AcDbCellStyleMap
 90
        3
300
CELLSTYLE
  1
TABLEFORMAT_BEGIN
 90
        5
170
     1
 91
        0
 92
    32768
 62
   257
 93
        1
300
CONTENTFORMAT
  1
CONTENTFORMAT_BEGIN
 90
        0
 91
        0
 92
        4
 93
        0
300

 40
0.0
140
1.0
 94
        5
 62
     0
340
11
144
0.25
309
CONTENTFORMAT_END
171
     1
301
MARGIN
  1
CELLMARGIN_BEGIN
 40
0.06
 40
0.06
 40
0.06
 40
0.06
 40
0.06
 40
0.06
309
CELLMARGIN_END
 94
        6
 95
        1
302
GRIDFORMAT
  1
GRIDFORMAT_BEGIN
 90
        0
 91
        1
 62
     0
 92
       -2
340
14
 93
        0
 40
0.045
309
GRIDFORMAT_END
 95
        2
302
GRIDFORMAT
  1
GRIDFORMAT_BEGIN
 90
        0
 91
        1
 62
     0
 92
       -2
340
14
 93
        0
 40
0.045
309
GRIDFORMAT_END
 95
        4
302
GRIDFORMAT
  1
GRIDFORMAT_BEGIN
 90
        0
 91
        1
 62
     0
 92
       -2
340
14
 93
        0
 40
0.045
309
GRIDFORMAT_END
 95
        8
302
GRIDFORMAT
  1
GRIDFORMAT_BEGIN
 90
        0
 91
        1
 62
     0
 92
       -2
340
14
 93
        0
 40
0.045
309
GRIDFORMAT_END
 95
       16
302
GRIDFORMAT
  1
GRIDFORMAT_BEGIN
 90
        0
 91
        1
 62
     0
 92
       -2
340
14
 93
        0
 40
0.045
309
GRIDFORMAT_END
 95
       32
302
GRIDFORMAT
  1
GRIDFORMAT_BEGIN
 90
        0
 91
        1
 62
     0
 92
       -2
340
14
 93
        0
 40
0.045
309
GRIDFORMAT_END
309
TABLEFORMAT_END
  1
CELLSTYLE_BEGIN
 90
        1
 91
        1
300
_TITLE
309
CELLSTYLE_END
300
CELLSTYLE
  1
TABLEFORMAT_BEGIN
 90
        5
170
     1
 91
        0
 92
        0
 62
   257
 93
        1
300
CONTENTFORMAT
  1
CONTENTFORMAT_BEGIN
 90
        0
 91
        0
 92
        4
 93
        0
300

 40
0.0
140
1.0
 94
        5
 62
     0
340
11
144
0.18
309
CONTENTFORMAT_END
171
     1
301
MARGIN
  1
CELLMARGIN_BEGIN
 40
0.06
 40
0.06
 40
0.06
 40
0.06
 40
0.06
 40
0.06
309
CELLMARGIN_END
 94
        6
 95
        1
302
GRIDFORMAT
  1
GRIDFORMAT_BEGIN
 90
        0
 91
        1
 62
     0
 92
       -2
340
14
 93
        0
 40
0.045
309
GRIDFORMAT_END
 95
        2
302
GRIDFORMAT
  1
GRIDFORMAT_BEGIN
 90
        0
 91
        1
 62
     0
 92
       -2
340
14
 93
        0
 40
0.045
309
GRIDFORMAT_END
 95
        4
302
GRIDFORMAT
  1
GRIDFORMAT_BEGIN
 90
        0
 91
        1
 62
     0
 92
       -2
340
14
 93
        0
 40
0.045
309
GRIDFORMAT_END
 95
        8
302
GRIDFORMAT
  1
GRIDFORMAT_BEGIN
 90
        0
 91
        1
 62
     0
 92
       -2
340
14
 93
        0
 40
0.045
309
GRIDFORMAT_END
 95
       16
302
GRIDFORMAT
  1
GRIDFORMAT_BEGIN
 90
        0
 91
        1
 62
     0
 92
       -2
340
14
 93
        0
 40
0.045
309
GRIDFORMAT_END
 95
       32
302
GRIDFORMAT
  1
GRIDFORMAT_BEGIN
 90
        0
 91
        1
 62
     0
 92
       -2
340
14
 93
        0
 40
0.045
309
GRIDFORMAT_END
309
TABLEFORMAT_END
  1
CELLSTYLE_BEGIN
 90
        2
 91
        1
300
_HEADER
309
CELLSTYLE_END
300
CELLSTYLE
  1
TABLEFORMAT_BEGIN
 90
        5
170
     1
 91
        0
 92
        0
 62
   257
 93
        1
300
CONTENTFORMAT
  1
CONTENTFORMAT_BEGIN
 90
        0
 91
        0
 92
        4
 93
        0
300

 40
0.0
140
1.0
 94
        2
 62
     0
340
11
144
0.18
309
CONTENTFORMAT_END
171
     1
301
MARGIN
  1
CELLMARGIN_BEGIN
 40
0.06
 40
0.06
 40
0.06
 40
0.06
 40
0.06
 40
0.06
309
CELLMARGIN_END
 94
        6
 95
        1
302
GRIDFORMAT
  1
GRIDFORMAT_BEGIN
 90
        0
 91
        1
 62
     0
 92
       -2
340
14
 93
        0
 40
0.045
309
GRIDFORMAT_END
 95
        2
302
GRIDFORMAT
  1
GRIDFORMAT_BEGIN
 90
        0
 91
        1
 62
     0
 92
       -2
340
14
 93
        0
 40
0.045
309
GRIDFORMAT_END
 95
        4
302
GRIDFORMAT
  1
GRIDFORMAT_BEGIN
 90
        0
 91
        1
 62
     0
 92
       -2
340
14
 93
        0
 40
0.045
309
GRIDFORMAT_END
 95
        8
302
GRIDFORMAT
  1
GRIDFORMAT_BEGIN
 90
        0
 91
        1
 62
     0
 92
       -2
340
14
 93
        0
 40
0.045
309
GRIDFORMAT_END
 95
       16
302
GRIDFORMAT
  1
GRIDFORMAT_BEGIN
 90
        0
 91
        1
 62
     0
 92
       -2
340
14
 93
        0
 40
0.045
309
GRIDFORMAT_END
 95
       32
302
GRIDFORMAT
  1
GRIDFORMAT_BEGIN
 90
        0
 91
        1
 62
     0
 92
       -2
340
14
 93
        0
 40
0.045
309
GRIDFORMAT_END
309
TABLEFORMAT_END
  1
CELLSTYLE_BEGIN
 90
        3
 91
        2
300
_DATA
309
CELLSTYLE_END
  0
ENDSEC
  0
EOF
